<?xml version="1.0" encoding="UTF-8"?>
<svg xmlns="http://www.w3.org/2000/svg" xmlns:xlink="http://www.w3.org/1999/xlink" viewBox="0 0 633.18 585.65">
    <defs>
        <style>
            .a{isolation:isolate;}.b{fill:#22009c;}.c{fill:url(#a);}.bl,.d,.m{fill:#a8c4e5;}.d{opacity:0.4;}.bl,.d{mix-blend-mode:multiply;}.e{fill:#2c1f9c;}.f{fill:#c6d2f2;}.g{fill:#3b2ad1;}.h{fill:#ffc2b0;}.i{fill:#91accc;}.j{fill:#9ebbde;}.k{fill:#6f9ed9;}.l{fill:#4852db;}.n{fill:#e1eaf4;}.o{fill:#fff;}.p{fill:#5445d9;}.q{fill:#f09a82;}.r{fill:#21ded5;}.s{fill:#ebf1f7;}.t{fill:#a8c9ed;}.u{fill:#2964d6;}.v{fill:#4a3eb5;}.cm,.w{fill:#d9e9ff;}.x{fill:#e6f0ff;}.y{fill:#6899e3;}.z{fill:url(#b);}.aa{fill:url(#c);}.ab{fill:url(#d);}.ac{fill:#94a6eb;}.ad{fill:#7aa5f0;}.ae{fill:url(#e);}.af{fill:url(#f);}.ag,.bn{fill:none;stroke:#fff;stroke-linecap:round;stroke-linejoin:round;}.ag{stroke-width:1.57px;}.ah{fill:url(#g);}.ai{fill:url(#h);}.aj{fill:url(#i);}.ak{fill:url(#j);}.al{fill:#271c8c;}.am{fill:url(#k);}.an{fill:url(#l);}.ao{fill:url(#m);}.ap{fill:url(#n);}.aq{fill:url(#o);}.ar{fill:url(#p);}.as{fill:url(#q);}.at{fill:url(#r);}.au{fill:url(#s);}.av{fill:url(#t);}.aw{fill:url(#u);}.ax{fill:#ed68e0;}.ay{fill:url(#v);}.az{fill:url(#w);}.ba{fill:#bad4f5;}.bb{fill:url(#x);}.bc{fill:url(#y);}.bd{fill:url(#z);}.be{fill:url(#aa);}.bf{fill:#e655be;}.bg{fill:#bfdfff;}.bh{fill:#dbefff;}.bi{fill:#cfe3ff;}.bj{fill:#b6ceed;}.bk{fill:url(#ab);}.bl{opacity:0.29;}.bm{fill:url(#ac);}.bn{stroke-width:11.42px;}.bo{fill:#f8b133;}.bp{fill:#e84e1b;}.bq{fill:#bd1622;}.br{fill:url(#ad);}.bs{fill:url(#ae);}.bt{fill:#efb892;}.bu{fill:url(#af);}.bv{fill:url(#ag);}.bw{fill:#e3f1ff;}.bx{fill:#4771b6;}.by{fill:url(#ah);}.bz{fill:url(#ai);}.ca{fill:url(#aj);}.cb{fill:url(#ak);}.cc{fill:#f9dec5;}.cd{fill:url(#al);}.ce{fill:#e9c5a1;}.cf{fill:#cc3ee5;}.cg{fill:#f29100;}.ch{fill:#eb6092;}.ci{fill:#ef487c;}.cj{fill:url(#am);}.ck{fill:#467de4;}.cl{fill:#9ec2ff;}.cm{opacity:0.39;}.cn{fill:#dbf8fe;}.co{fill:url(#an);}.cp{fill:#8cd5e8;}.cq{fill:#25166b;}.cr{fill:url(#ao);}.cs{fill:url(#ap);}.ct{fill:url(#aq);}.cu{fill:url(#ar);}
        </style>
        <linearGradient id="a" x1="329.18" y1="186.8" x2="616.28" y2="186.8" gradientUnits="userSpaceOnUse">
            <stop offset="0.01" stop-color="#1355b7"></stop>
            <stop offset="0.11" stop-color="#0b2155"></stop>
            <stop offset="0.24" stop-color="#1355b7"></stop>
            <stop offset="0.57" stop-color="#50c5ff"></stop>
            <stop offset="0.85" stop-color="#1355b7"></stop>
            <stop offset="0.94" stop-color="#030f42"></stop>
            <stop offset="1" stop-color="#1355b7"></stop>
        </linearGradient>
        <linearGradient id="b" x1="323.38" y1="210.63" x2="605.95" y2="210.63" gradientUnits="userSpaceOnUse">
            <stop offset="0" stop-color="#1355b7"></stop>
            <stop offset="0.02" stop-color="#50c5ff"></stop>
            <stop offset="0.47" stop-color="#030f42"></stop>
            <stop offset="1" stop-color="#2c4edd"></stop>
        </linearGradient>
        <linearGradient id="c" x1="331.3" y1="183.01" x2="599.32" y2="183.01" gradientUnits="userSpaceOnUse">
            <stop offset="0" stop-color="#2600a0"></stop>
            <stop offset="0.03" stop-color="#2701a3"></stop>
            <stop offset="0.67" stop-color="#3912d5"></stop>
            <stop offset="0.98" stop-color="#4018e8"></stop>
        </linearGradient>
        <linearGradient id="d" x1="185.55" y1="334.44" x2="596.02" y2="334.44" xlink:href="#b"></linearGradient>
        <linearGradient id="e" x1="248.45" y1="113.29" x2="366.53" y2="113.29" xlink:href="#c"></linearGradient>
        <linearGradient id="f" x1="496.75" y1="277.77" x2="543.17" y2="197.37"
                        gradientTransform="matrix(1.03, 0.1, -0.01, 0.93, -31.51, -66.11)"
                        gradientUnits="userSpaceOnUse">
            <stop offset="0" stop-color="#4432db"></stop>
            <stop offset="0.17" stop-color="#693dda"></stop>
            <stop offset="0.57" stop-color="#b955d8"></stop>
            <stop offset="0.85" stop-color="#ec63d7"></stop>
            <stop offset="0.98" stop-color="#ff69d7"></stop>
        </linearGradient>
        <linearGradient id="g" x1="0.67" y1="366.11" x2="160.61" y2="366.11" gradientUnits="userSpaceOnUse">
            <stop offset="0" stop-color="#3124ff"></stop>
            <stop offset="1" stop-color="#00ffe2"></stop>
        </linearGradient>
        <linearGradient id="h" x1="0.67" y1="379" x2="80.64" y2="379" gradientUnits="userSpaceOnUse">
            <stop offset="0" stop-color="#3124ff"></stop>
            <stop offset="1" stop-color="#00ffe2" stop-opacity="0"></stop>
        </linearGradient>
        <linearGradient id="i" x1="81.7" y1="380.73" x2="160.61" y2="380.73" xlink:href="#g"></linearGradient>
        <linearGradient id="j" x1="0.67" y1="347.26" x2="160.61" y2="347.26" xlink:href="#g"></linearGradient>
        <linearGradient id="k" x1="0" y1="329.26" x2="159.94" y2="329.26" xlink:href="#g"></linearGradient>
        <linearGradient id="l" x1="0" y1="342.15" x2="79.97" y2="342.15" xlink:href="#h"></linearGradient>
        <linearGradient id="m" x1="81.03" y1="343.88" x2="159.94" y2="343.88" xlink:href="#g"></linearGradient>
        <linearGradient id="n" x1="0" y1="310.41" x2="159.94" y2="310.41" xlink:href="#g"></linearGradient>
        <linearGradient id="o" x1="0" y1="290.62" x2="159.94" y2="290.62" xlink:href="#g"></linearGradient>
        <linearGradient id="p" x1="0" y1="303.52" x2="79.97" y2="303.52" xlink:href="#h"></linearGradient>
        <linearGradient id="q" x1="81.03" y1="305.25" x2="159.94" y2="305.25" xlink:href="#g"></linearGradient>
        <linearGradient id="r" x1="0" y1="271.77" x2="159.94" y2="271.77" xlink:href="#g"></linearGradient>
        <linearGradient id="s" x1="239.41" y1="335.23" x2="280.63" y2="335.23" gradientUnits="userSpaceOnUse">
            <stop offset="0" stop-color="#f8b133"></stop>
            <stop offset="1" stop-color="#e84e1b"></stop>
        </linearGradient>
        <linearGradient id="t" x1="260.02" y1="375.94" x2="280.63" y2="375.94" gradientUnits="userSpaceOnUse">
            <stop offset="0" stop-color="#e7358a"></stop>
            <stop offset="0.54" stop-color="#ec6d1c"></stop>
        </linearGradient>
        <linearGradient id="u" x1="239.41" y1="375.94" x2="260.04" y2="375.94" gradientUnits="userSpaceOnUse">
            <stop offset="0" stop-color="#f6a509"></stop>
            <stop offset="0.75" stop-color="#e84e1b"></stop>
        </linearGradient>
        <linearGradient id="v" x1="233.86" y1="405.26" x2="254.22" y2="405.26" gradientUnits="userSpaceOnUse">
            <stop offset="0" stop-color="#ff69d7"></stop>
            <stop offset="0.16" stop-color="#fb68d7"></stop>
            <stop offset="0.31" stop-color="#f065d7"></stop>
            <stop offset="0.45" stop-color="#de5fd8"></stop>
            <stop offset="0.59" stop-color="#c458d8"></stop>
            <stop offset="0.72" stop-color="#a24ed9"></stop>
            <stop offset="0.86" stop-color="#7841da"></stop>
            <stop offset="0.99" stop-color="#4833db"></stop>
            <stop offset="1" stop-color="#4432db"></stop>
        </linearGradient>
        <linearGradient id="w" x1="213.51" y1="405.26" x2="233.86" y2="405.26" gradientUnits="userSpaceOnUse">
            <stop offset="0" stop-color="#4432db"></stop>
            <stop offset="0.02" stop-color="#4e35db"></stop>
            <stop offset="0.09" stop-color="#7841da"></stop>
            <stop offset="0.17" stop-color="#9c4cd9"></stop>
            <stop offset="0.25" stop-color="#bb55d8"></stop>
            <stop offset="0.35" stop-color="#d45cd8"></stop>
            <stop offset="0.45" stop-color="#e762d8"></stop>
            <stop offset="0.57" stop-color="#f566d7"></stop>
            <stop offset="0.72" stop-color="#fd68d7"></stop>
            <stop offset="1" stop-color="#ff69d7"></stop>
        </linearGradient>
        <linearGradient id="x" x1="488.25" y1="225.96" x2="526" y2="225.96" gradientUnits="userSpaceOnUse">
            <stop offset="0" stop-color="#7a4694"></stop>
            <stop offset="1" stop-color="#b54f97"></stop>
        </linearGradient>
        <linearGradient id="y" x1="481.69" y1="305.72" x2="518.12" y2="305.72" xlink:href="#c"></linearGradient>
        <linearGradient id="z" x1="483.79" y1="263.27" x2="514.69" y2="263.27" xlink:href="#x"></linearGradient>
        <linearGradient id="aa" x1="503.14" y1="258.62" x2="538.87" y2="258.62" xlink:href="#x"></linearGradient>
        <linearGradient id="ab" x1="353.52" y1="459.75" x2="404.28" y2="459.75" gradientUnits="userSpaceOnUse">
            <stop offset="0" stop-color="#4432db"></stop>
            <stop offset="0.11" stop-color="#4a34db"></stop>
            <stop offset="0.26" stop-color="#5c39da"></stop>
            <stop offset="0.44" stop-color="#7941da"></stop>
            <stop offset="0.63" stop-color="#a14dd9"></stop>
            <stop offset="0.83" stop-color="#d45cd8"></stop>
            <stop offset="0.98" stop-color="#ff69d7"></stop>
        </linearGradient>
        <linearGradient id="ac" x1="353.18" y1="452.06" x2="403.94" y2="452.06" xlink:href="#ab"></linearGradient>
        <linearGradient id="ad" x1="2413.09" y1="228.27" x2="2414.68" y2="279.18"
                        gradientTransform="matrix(-1, 0, 0, 1, 2481.66, 0)" xlink:href="#s"></linearGradient>
        <linearGradient id="ae" x1="2383.12" y1="229.2" x2="2384.7" y2="280.11"
                        gradientTransform="matrix(-1, 0, 0, 1, 2481.66, 0)" xlink:href="#s"></linearGradient>
        <linearGradient id="af" x1="167.43" y1="186.74" x2="194.57" y2="186.74"
                        gradientTransform="matrix(-1, 0, 0, 1, 271.3, 0)" xlink:href="#x"></linearGradient>
        <linearGradient id="ag" x1="2385.17" y1="246.55" x2="2398.27" y2="246.55"
                        gradientTransform="matrix(-1, 0, 0, 1, 2481.66, 0)" xlink:href="#t"></linearGradient>
        <linearGradient id="ah" x1="-1678.81" y1="275.81" x2="-1650.45" y2="275.81"
                        gradientTransform="matrix(-1, 0, 0, 1, -1537.4, 0)" gradientUnits="userSpaceOnUse">
            <stop offset="0" stop-color="#a7caec"></stop>
            <stop offset="1" stop-color="#90b5e0"></stop>
        </linearGradient>
        <linearGradient id="ai" x1="-12040.94" y1="-2300.57" x2="-11992.15" y2="-2300.57"
                        gradientTransform="matrix(1, 0, 0, -1, 12156.72, -2016.36)" xlink:href="#ah"></linearGradient>
        <linearGradient id="aj" x1="2365.6" y1="223.88" x2="2337.14" y2="257.4"
                        gradientTransform="matrix(-1, 0, 0, 1, 2481.66, 0)" xlink:href="#s"></linearGradient>
        <linearGradient id="ak" x1="-1719.85" y1="275.01" x2="-1665.11" y2="275.01" xlink:href="#ah"></linearGradient>
        <linearGradient id="al" x1="-612.1" y1="255.16" x2="-570.71" y2="268.23" gradientTransform="translate(684.18)"
                        xlink:href="#s"></linearGradient>
        <linearGradient id="am" x1="303.46" y1="404.86" x2="303.46" y2="380.51" gradientUnits="userSpaceOnUse">
            <stop offset="0" stop-color="#ec6d1c"></stop>
            <stop offset="1" stop-color="#e7358a"></stop>
        </linearGradient>
        <linearGradient id="an" x1="556.94" y1="104.51" x2="568.03" y2="104.51" gradientUnits="userSpaceOnUse">
            <stop offset="0" stop-color="#ff4fed"></stop>
            <stop offset="0.36" stop-color="#ee32d8"></stop>
            <stop offset="0.76" stop-color="#df18c6"></stop>
            <stop offset="1" stop-color="#d90ebf"></stop>
        </linearGradient>
        <linearGradient id="ao" x1="542.81" y1="123.47" x2="557.84" y2="123.47" xlink:href="#an"></linearGradient>
        <linearGradient id="ap" x1="534.55" y1="125.81" x2="544.56" y2="125.81" xlink:href="#an"></linearGradient>
        <linearGradient id="aq" x1="540.81" y1="54.72" x2="565.34" y2="54.72"
                        gradientTransform="matrix(1, 0, 0, 1, 0, 0)" xlink:href="#f"></linearGradient>
        <linearGradient id="ar" x1="536.1" y1="56.17" x2="559.98" y2="56.17"
                        gradientTransform="matrix(1, 0, 0, 1, 0, 0)" xlink:href="#f"></linearGradient>
    </defs>
    <title>zuul1</title>
    <g class="a">
        <path class="b"
              d="M600.22,161.25c3.6,2.08,6.45,6.62,6.35,10.15l-4,160c-.09,3.53-3.41,4.64-7,2.56L329.92,180.74c-3.61-2.08-6.22,5.78-6.12,2.25L327.85,10.6c.09-3.53,3.09-4.7,6.7-2.62Z"></path>
        <path class="c"
              d="M616.28,163.89v0a.17.17,0,0,1,0-.07,2.64,2.64,0,0,0,0-.28,1.79,1.79,0,0,0,0-.23v-.06a2.51,2.51,0,0,0,0-.27,2.56,2.56,0,0,0,0-.27v-.08a1.06,1.06,0,0,0,0-.19l-.06-.27s0-.09,0-.13v-.06l0-.09a2.76,2.76,0,0,0-.08-.27l-.09-.26h0c0-.1-.07-.19-.1-.28l-.11-.27,0-.07,0-.06-.06-.14-.12-.26-.09-.2,0,0v0l-.12-.25a1.71,1.71,0,0,1-.13-.23.93.93,0,0,1-.05-.1l0,0,0-.1-.14-.24-.15-.24v0l0,0-.17-.26-.16-.23-.1-.16L614,158c-.09-.13-.19-.25-.28-.37l-.09-.13,0,0-.37-.45,0-.07-.05-.06-.14-.15-.22-.25-.09-.09-.05-.05-.08-.09-.23-.23-.17-.16,0,0,0,0-.25-.23-.26-.22h0l-.25-.21-.27-.21,0,0,0,0-.19-.15-.27-.18-.08-.05,0,0h0l-.16-.11-.27-.16-6.43-3.71h0l-257.9-149h0l-.39-.22h0l-.69-.4-.27-.14L344,.64a1.59,1.59,0,0,0-.27-.12L343.46.4l-.28-.09-.29-.1h-.05l-.25-.06-.12,0-.11,0-.08,0L342,0h0l-.35,0h-.43l-.24,0-.13,0h0l-.46.11h0l0,0a3.07,3.07,0,0,0-.55.25S329,7.64,329.18,7.57,592.85,157,592.85,157l-.24.14s6.72,3.57,6.81,3.63l.27.17.27.19.27.2.11.08.43.34h0l.41.37.05.05.39.37,0,.06c.13.12.25.25.37.38l.06.07.34.39.17.21.21.26.22.3.15.2.12.18a3.53,3.53,0,0,1,.21.32l.06.08.27.44,0,0,.27.47,0,.05.24.47,0,.06c.07.15.14.31.2.46l0,.07c.07.16.13.31.18.46l0,.07c.06.16.11.31.16.47l0,.06c0,.16.09.31.13.47v.06c0,.16.07.31.1.47s0,.15.05.23a2.51,2.51,0,0,0,0,.27l0,.29c0,.09,0,.18,0,.28s0,.2,0,.3v.24s0,.15,0,.41l-.62,23.41-4.09,2.2.24.14-4.48,2.41,2,1.16.27.18.27.18.27.2.11.09.42.34h0l.42.37,0,0,.38.37.06.06.36.38.06.07c.12.13.24.26.35.4l.17.21.2.25.23.31.15.2.12.17.21.32a.41.41,0,0,1,0,.09c.1.14.19.29.28.44l0,0c.09.15.18.31.26.47l0,.05.23.46,0,.06.21.47,0,.07.18.46,0,.07.15.46,0,.07c0,.15.09.31.13.46l0,.07c0,.15.07.31.1.46s0,.16,0,.23l0,.17L601.2,328.79c0,.75-2.28,5.46-1.68,5.1l1.7-1.54-1,36.13c0,.75-2.29,5.45-1.68,5.1l2.3-3c-.41,1-.36,3.16-.09,3l8.17-6c1.32-1.2,2.59-2.41,2.65-4.32l3.68-157.39.05-1.88v-.23c0-.07,0-.13,0-.2h0v-.09c0-.1,0-.19,0-.29l0-.22v-.06s0-.07,0-.11l1-36.6,0-1.87v-.43Z"></path>
        <ellipse class="d" cx="213.06" cy="276.43" rx="9.73" ry="19.59"
                 transform="matrix(0.02, -1, 1, 0.02, -67.1, 484.55)"></ellipse>
        <path class="e"
              d="M203.47,286.57l.4-10.17c-.16-2.37-1.67-2.85-3-3.94a1.6,1.6,0,0,0-2,0l-1.29,1c-1.92,1.38-1.69,3.95-1.34,5.58l1.38,9C198,289.66,203,292,203.47,286.57Z"></path>
        <path class="f" d="M196.9,273.18c0,2.41,5.87,2.41,5.87,0v-7.85H196.9Z"></path>
        <path class="e"
              d="M230.32,271.2l-8.18-8.09a10.15,10.15,0,0,0-5.24-.68,1.62,1.62,0,0,0-1.38,1.48l-.12,1.64c-.25,2.35,0,2.69,1.41,3.52l8.59,5a5.47,5.47,0,0,0,4.91.2l.36-.2C231.92,273.31,231.77,272,230.32,271.2Z"></path>
        <path class="f" d="M216.19,262.81c0,2.42,5.88,2.42,5.88,0V255h-5.88Z"></path>
        <path class="g"
              d="M215.41,260.59c2.3,1.65,6.11,1.61,7.38-.31a378.61,378.61,0,0,0,5.93-72.51l-18.25-5.41C213.72,211.85,217.61,238,215.41,260.59Z"></path>
        <path class="g" d="M196.21,268.2c1.86,2.76,6.07,2.78,7.31.78l12.29-82.44h-21.2Z"></path>
        <path class="e" d="M213.06,205l1.05,7.43,4-15.76a24.61,24.61,0,0,1-2.91.56Z"></path>
        <path class="h"
              d="M200.48,163.28l-10.95,22c-.55,1.2-2.43,22.44-2.43,22.44l-5.46-3.2s1.65-23.49,2-24.68l6.56-23.19Z"></path>
        <rect class="h" x="181.82" y="200.62" width="5.8" height="7.89" rx="2.52"
              transform="translate(394.56 383.27) rotate(172.5)"></rect>
        <path class="h"
              d="M229.38,151.94l7.05,11.47c1.29,2.55,4.09,7.18,5,12.44l9.58-3.76-.34,2.65L238,180.36c1.1-6.13-2.65-6.61-4.79-9.19-3.76-4.54-7.49-9.06-7.53-9.26S229.38,151.94,229.38,151.94Z"></path>
        <path class="i" d="M226.09,142.24l8.25,15.48c-1.35,5.38-4.26,8.12-8,9.57l-3.13-20.94Z"></path>
        <path class="j"
              d="M229.45,185.76a96.23,96.23,0,0,1-.65-29.28c0-15.94-6-21.83-16.06-18.17l-4.15,1.1c-12.11,6.53-18.27,6.2-16.1,19l2.12,28.11C194.61,201,230.23,202.77,229.45,185.76Z"></path>
        <polygon class="k" points="200.48 163.28 195.26 184.97 194.63 187.08 193.86 176.63 200.48 163.28"></polygon>
        <path class="l"
              d="M214.31,138.42a8.68,8.68,0,0,1-2.39,1.64c-.8.16-9.41-6.8-6.29-14.6,2-4.94,11.31-1.07,11.31-1.07Z"></path>
        <path class="h"
              d="M211.47,145.24l.48.08a3,3,0,0,0,3.46-2.45l1.56-9.18a3,3,0,0,0-2.46-3.46l-.48-.08a3,3,0,0,0-3.46,2.46l-2.8,8.59C207.5,142.83,209.84,145,211.47,145.24Z"></path>
        <path class="j"
              d="M201.42,159.74l-6.06,17.17c-.85,1.33-13.24-4.94-12.18-7,.18-.37,6.78-21.1,13.87-24.44C202.81,142.77,204.6,151.93,201.42,159.74Z"></path>
        <path class="m"
              d="M223.88,177l2.33-.82.27-.28.18-.31,17.54-9.12a.87.87,0,0,1,.77,0l6.7,3.93v-.11l1.26.5-.05.52h0a.31.31,0,0,1-.14.14L234.49,181s0,0-.05.07c-.38,1.4-1,2.65-2.21,1.92l-7.42-4.37a1.8,1.8,0,0,1-.93-1.59Z"></path>
        <path class="n"
              d="M233.74,182.41l21-10.93c.24-.13.24-.35,0-.5l-8.93-5.23a1.05,1.05,0,0,0-.9,0l-21,10.93c-.24.13-.23.35,0,.5l8.94,5.23A1,1,0,0,0,233.74,182.41Z"></path>
        <path class="m"
              d="M233.15,175.37l5.09-2.65c.06,0,.06-.08,0-.12l-2.17-1.26a.22.22,0,0,0-.21,0L230.77,174a.06.06,0,0,0,0,.12l2.17,1.27A.22.22,0,0,0,233.15,175.37Z"></path>
        <path class="o"
              d="M235.58,170.11a2.4,2.4,0,0,1,1.06-1.32l20.85-10.68a.58.58,0,0,1,.44-.07h0a.23.23,0,0,1,.1.07l.58.65-.59-.05-3.13,11.55a2.34,2.34,0,0,1-1,1.32l-19.72,10.1-.67.65-.09.15c-.38.08-1.22-.53-1.22-.53Z"></path>
        <path class="p"
              d="M233.61,183l20.85-10.68a2.4,2.4,0,0,0,1.06-1.32l3.16-11.68c.13-.49-.12-.71-.57-.48l-20.85,10.68a2.34,2.34,0,0,0-1,1.32L233,182.48C232.91,183,233.16,183.2,233.61,183Z"></path>
        <path class="o"
              d="M245.3,171.66c-.16.62.41.76,1.29.31a4,4,0,0,0,1.89-1.93c.17-.62-.41-.76-1.29-.31A4,4,0,0,0,245.3,171.66Z"></path>
        <path class="q" d="M215.92,139.87a8.2,8.2,0,0,1-6.51-3.69s2.48,5.76,6.07,6.26Z"></path>
        <path class="h"
              d="M213,135.31c.92,4.38,4,5.83,6.93,3.22s4.53-8.26,3.62-12.64-4-5.83-6.93-3.22S212.05,130.93,213,135.31Z"></path>
        <path class="h"
              d="M208.54,133.61c.92,4.39,5.4,6.28,8.31,3.68s4.53-8.27,3.62-12.65-4-5.82-6.93-3.22S207.63,129.23,208.54,133.61Z"></path>
        <path class="l" d="M215,124.43s-.45,8.29-7.2,9c0,0-6.56-5.43.1-12.35,5.87-6.11,12.52.41,12.52.41Z"></path>
        <path class="r" d="M223.75,128a7.84,7.84,0,0,0-6.18-3.72l2.84-2.75S224,121.49,223.75,128Z"></path>
        <path class="l"
              d="M210.81,128.63c1.83-1.76,5.11-1.06,9.51,1.56,4.29,1,5.74-3.86,5.74-3.86,1.14-2.53-.42-4-2.95-5.17l-6.59-3c-3.73-1.69-8.05.87-9.19,3.41l-.26.4C205.94,124.54,208.28,127.5,210.81,128.63Z"></path>
        <path class="h" d="M207.3,134.6a2,2,0,1,0,1.53-2.33A2,2,0,0,0,207.3,134.6Z"></path>
        <path class="l" d="M223.7,127.63a2.55,2.55,0,1,0,2.55-2.55A2.55,2.55,0,0,0,223.7,127.63Z"></path>
        <path class="l" d="M223.89,124.06a2.55,2.55,0,1,0,2.55-2.55A2.55,2.55,0,0,0,223.89,124.06Z"></path>
        <path class="l" d="M220.36,123a2.56,2.56,0,1,0,2.56-2.56A2.56,2.56,0,0,0,220.36,123Z"></path>
        <path class="l" d="M220.36,129.16a2.56,2.56,0,1,0,2.56-2.55A2.56,2.56,0,0,0,220.36,129.16Z"></path>
        <path class="l" d="M217.17,128.73a2.55,2.55,0,1,0,2.55-2.55A2.55,2.55,0,0,0,217.17,128.73Z"></path>
        <path class="s"
              d="M331.71,415.85l-68.94-40c-4.13-2.39-11.35-2.11-16.13.64L126,446c1.07-3,2.16-6.11,2.16-6.11l-10.53,2.53.19,10.34c-.49,1.87.37,3.74,2.65,5.06l68.94,39.95c4.13,2.39,11.35,2.1,16.13-.65l125-71.94C335.32,422.41,335.84,418.24,331.71,415.85Z"></path>
        <path class="t"
              d="M334.51,408.57l-13.31,1.18L262.77,375.9c-4.13-2.39-11.35-2.11-16.13.64l-49.7,82.92.26,39.88a18.35,18.35,0,0,0,8.3-2.25l125-71.94c2.74-1.57,4.07-3.61,3.94-5.51Z"></path>
        <path class="u"
              d="M185.62,489.52c0,1.2-.85,1.68-1.89,1.07a4.18,4.18,0,0,1-1.89-3.26c0-1.2.85-1.68,1.9-1.08A4.16,4.16,0,0,1,185.62,489.52Z"></path>
        <path class="o"
              d="M189.39,486.14l-68.95-39.95c-4.13-2.39-3.61-6.56,1.17-9.31l125-71.93c4.78-2.75,12-3,16.13-.65l69,39.95c4.13,2.39,3.6,6.56-1.18,9.31l-125,71.94C200.74,488.24,193.52,488.53,189.39,486.14Z"></path>
        <path class="e"
              d="M189.39,483.92,120.44,444c-4.13-2.39-3.61-6.56,1.17-9.31l125-71.93c4.78-2.75,12-3,16.13-.65l69,39.95c4.13,2.39,3.6,6.56-1.18,9.31l-125,71.93C200.74,486,193.52,486.31,189.39,483.92Z"></path>
        <path class="v"
              d="M299.55,392.49l-19-11c-.79-.46-.69-1.26.22-1.78h0a3.43,3.43,0,0,1,3.08-.12l19,11c.78.45.68,1.25-.23,1.78h0A3.46,3.46,0,0,1,299.55,392.49Z"></path>
        <path class="u"
              d="M161.06,477l-15.29-8.86a2.82,2.82,0,0,1-1.17-2.25h0c0-.86.53-1.26,1.18-.89l15.29,8.86a2.83,2.83,0,0,1,1.17,2.25h0C162.24,477,161.71,477.41,161.06,477Z"></path>
        <path class="w"
              d="M250.54,369.08,145.39,429.57a3.67,3.67,0,0,0,0,6.36l63.72,36.92a3.67,3.67,0,0,0,3.67,0l105.15-60.5a3.67,3.67,0,0,0,0-6.35L254.2,369.08A3.68,3.68,0,0,0,250.54,369.08Z"></path>
        <path class="x"
              d="M306.28,433h0a1.45,1.45,0,0,0,2.32,1.17l7.5-4.35a3.86,3.86,0,0,0,1.74-3.52h0a1.44,1.44,0,0,0-2.31-1.16L308,429.49A3.83,3.83,0,0,0,306.28,433Z"></path>
        <path class="y"
              d="M306.89,433.68h0a1.45,1.45,0,0,0,2.32,1.17l7.51-4.36a3.85,3.85,0,0,0,1.73-3.51h0a1.44,1.44,0,0,0-2.31-1.17l-7.51,4.35A3.86,3.86,0,0,0,306.89,433.68Z"></path>
        <path class="x"
              d="M292.66,441.06h0a1.45,1.45,0,0,0,2.32,1.17l7.5-4.36a3.83,3.83,0,0,0,1.74-3.51h0a1.44,1.44,0,0,0-2.31-1.17l-7.51,4.36A3.83,3.83,0,0,0,292.66,441.06Z"></path>
        <path class="y"
              d="M293.22,441.6h0a1.45,1.45,0,0,0,2.32,1.17l7.51-4.36a3.85,3.85,0,0,0,1.73-3.51h0a1.44,1.44,0,0,0-2.31-1.17L295,438.09A3.87,3.87,0,0,0,293.22,441.6Z"></path>
        <path class="z"
              d="M599.6,200.89C603.2,203,606,207.51,606,211L601.67,371c-.09,3.53-3.09,4.7-6.69,2.62L329.72,220.38c-3.6-2.08-6.44-6.62-6.34-10.15l4.28-159.95c.09-3.52,3.08-4.69,6.68-2.61Z"></path>
        <path class="b"
              d="M600.14,181.48c3.6,2.07,6.09,0,6,3.54l-3.61,165.76c-.09,3.51-3.4,4.62-7,2.55L329.92,200.87c-3.61-2.07-6.45-6.59-6.36-10.1l4.29-159.16c.09-3.5,3.09-4.67,6.69-2.6Z"></path>
        <path class="aa"
              d="M599.31,180.65c.12-3-2.55-6.92-6-8.86L342.1,29c-3.41-1.94-6.27-1.12-6.39,1.84L335,50.21a3.84,3.84,0,0,0-.19,1.06L331.3,185.64c-.12,3,3.74,8.38,7.15,10.32L586.68,337c3.41,1.94,6.27,1.12,6.39-1.84l.76-19.37a3.84,3.84,0,0,0,.19-1.06Z"></path>
        <path class="g"
              d="M596.17,384.46,596.09,374l-10.19,6.53-2.19-5.05L328.14,227.88c-3.07-1.77-9.19-1.55-12.74.5L204.68,291.91v-1.77l-16.82,8.17-2.36-.95.32,7.76a3.58,3.58,0,0,0,2,3l266,154c3.08,1.78,8.51,1.76,12.06-.3l127.44-73.47c1.94-1.12,2.93-2.51,2.94-3.88Z"></path>
        <path class="ab"
              d="M453.58,451.73,187.63,298.19c-3.08-1.78-2.69-4.91.87-7l127.43-73.58c3.56-2.05,9-2.28,12.06-.5l266,153.55c3.08,1.77,2.69,4.91-.87,7L465.64,451.23C462.08,453.29,456.66,453.51,453.58,451.73Z"></path>
        <path class="ac"
              d="M331.87,245.6a2.07,2.07,0,0,1-1.76-.2L314,236.08c-.59-.34-.74-.79-.36-1l10.7-6.18a2,2,0,0,1,1.75.21l16.15,9.32c.58.33.74.79.35,1Z"></path>
        <path class="ac"
              d="M350.6,273.42a2,2,0,0,1-1.76-.2l-16.15-9.32c-.58-.34-.73-.79-.34-1l10.7-6.18a2,2,0,0,1,1.74.2l16.15,9.32c.59.34.74.79.36,1Z"></path>
        <path class="ac"
              d="M341.13,285a2,2,0,0,1-1.75-.21l-16.15-9.32c-.57-.33-.75-.78-.36-1l10.7-6.18a2.06,2.06,0,0,1,1.75.21l16.15,9.32c.58.33.74.79.36,1Z"></path>
        <path class="ac"
              d="M315.51,287.2a2.05,2.05,0,0,1-1.75-.2l-16.14-9.32c-.58-.33-.74-.79-.36-1l10.7-6.18a2,2,0,0,1,1.75.2L325.86,280c.58.33.73.79.35,1Z"></path>
        <path class="ac"
              d="M271.08,280.72a2,2,0,0,1-1.76-.21l-16.14-9.32c-.58-.33-.75-.79-.36-1l12.56-7.26a2.08,2.08,0,0,1,1.76.21l16.14,9.32c.58.33.74.79.36,1Z"></path>
        <path class="ac"
              d="M298.92,296.78a2.61,2.61,0,0,1-2.09-.4l-21.15-12.2c-.76-.44-1.07-1-.68-1.2l12.56-7.26a2.66,2.66,0,0,1,2.08.39l21.15,12.21c.77.44,1.07,1,.69,1.2Z"></path>
        <path class="ac"
              d="M437.89,377.09a2,2,0,0,1-1.64-.27l-16.13-9.31c-.59-.34-.81-.77-.49-.95l4.64-2.68a2,2,0,0,1,1.65.28l16.14,9.31c.58.33.79.76.47.94Z"></path>
        <path class="ac"
              d="M459.46,389.87a2,2,0,0,1-1.64-.28l-16.13-9.31c-.59-.34-.81-.76-.49-.95l4.65-2.68a2,2,0,0,1,1.65.28l16.13,9.31c.58.33.79.76.47.94Z"></path>
        <path class="ac"
              d="M482.33,402.77a2,2,0,0,1-1.62-.29l-16.14-9.31c-.58-.34-.81-.76-.5-.94l4.47-2.59a2.09,2.09,0,0,1,1.63.29l16.14,9.32c.58.33.8.75.49.93Z"></path>
        <path class="ac"
              d="M468.26,384.94a2,2,0,0,1-1.61-.28l-16.14-9.32c-.58-.33-.81-.76-.51-.93l4.48-2.59a2,2,0,0,1,1.62.29l16.14,9.31c.58.34.8.76.5.94Z"></path>
        <path class="ac"
              d="M410,360.87a2.08,2.08,0,0,1-1.76-.21L303.15,300c-.57-.33-.74-.79-.36-1l12.56-7.26a2.08,2.08,0,0,1,1.76.21l105.07,60.63c.58.34.74.8.36,1Z"></path>
        <path class="ac"
              d="M296,292.78a.28.28,0,0,1-.17,0l-12.35-7.12c-.06,0-.1-.09-.08-.1l.78-.45a.28.28,0,0,1,.17.05l12.34,7.12c.07,0,.11.08.09.1Z"></path>
        <path class="ac"
              d="M264.39,273.15s-.07,0-.1,0l-5.24-3s0,0,0-.05l.79-.45a.07.07,0,0,1,.09,0l5.24,3s0,0,0,.05Z"></path>
        <path class="ac"
              d="M337.64,300a2,2,0,0,1-1.75-.21l-16.15-9.31c-.57-.33-.74-.8-.35-1l10.69-6.18a2.07,2.07,0,0,1,1.76.21L348,292.76c.58.34.74.8.35,1Z"></path>
        <path class="ac"
              d="M359.87,312.79a2,2,0,0,1-1.74-.2L342,303.27c-.58-.33-.74-.79-.36-1l10.7-6.18a2,2,0,0,1,1.76.2l16.14,9.32c.58.33.74.79.35,1Z"></path>
        <path class="ac"
              d="M382.11,325.62a2,2,0,0,1-1.75-.2l-16.15-9.32c-.58-.33-.73-.79-.35-1l10.7-6.18a2.05,2.05,0,0,1,1.75.2l16.15,9.32c.57.33.73.79.34,1Z"></path>
        <path class="ac"
              d="M404.34,338.45a2.05,2.05,0,0,1-1.75-.2l-16.15-9.32c-.58-.34-.74-.8-.36-1l10.7-6.18a2,2,0,0,1,1.76.21l16.15,9.32c.58.33.73.79.35,1Z"></path>
        <path class="ac"
              d="M426.57,351.28a2,2,0,0,1-1.76-.21l-16.14-9.31c-.58-.34-.73-.79-.35-1l10.7-6.18a2,2,0,0,1,1.75.2l16.14,9.31c.58.34.75.8.36,1Z"></path>
        <path class="ac"
              d="M448.81,364.1a2,2,0,0,1-1.76-.21l-16.14-9.31c-.58-.34-.74-.79-.36-1l10.7-6.18a2,2,0,0,1,1.76.2l16.14,9.32c.58.33.74.79.36,1Z"></path>
        <path class="ac"
              d="M498.88,393a2,2,0,0,1-1.75-.21l-44-25.38c-.58-.34-.74-.79-.36-1l10.7-6.19a2,2,0,0,1,1.76.21l44,25.38c.58.34.73.8.35,1Z"></path>
        <path class="ac"
              d="M363.25,297.73a2,2,0,0,1-1.74-.21l-16.15-9.31c-.58-.34-.74-.79-.35-1l10.7-6.19a2.07,2.07,0,0,1,1.74.21l16.15,9.32c.59.34.73.79.36,1Z"></path>
        <path class="ac"
              d="M385.49,310.56a2,2,0,0,1-1.75-.21L367.59,301c-.57-.33-.74-.78-.35-1l10.7-6.19a2.07,2.07,0,0,1,1.74.21l16.15,9.32c.58.33.74.79.36,1Z"></path>
        <path class="ac"
              d="M407.72,323.39a2,2,0,0,1-1.75-.21l-16.14-9.31c-.58-.33-.75-.79-.37-1l10.71-6.18a2.06,2.06,0,0,1,1.75.21l16.14,9.32c.58.33.74.79.36,1Z"></path>
        <path class="ac"
              d="M430,336.22a2,2,0,0,1-1.75-.21l-16.14-9.31c-.58-.34-.75-.79-.36-1l10.7-6.18a2,2,0,0,1,1.75.21L440.29,329c.58.33.74.79.36,1Z"></path>
        <path class="ac"
              d="M452.19,349a2,2,0,0,1-1.75-.2l-16.15-9.33c-.58-.33-.74-.78-.35-1l10.7-6.19a2,2,0,0,1,1.74.21l16.15,9.32c.58.33.74.79.36,1Z"></path>
        <path class="ac"
              d="M474.42,361.87a2,2,0,0,1-1.75-.21l-16.14-9.31c-.59-.34-.75-.79-.36-1l10.7-6.18a2,2,0,0,1,1.75.21l16.14,9.32c.58.33.74.79.36,1Z"></path>
        <path class="ac"
              d="M496.65,374.7a2.06,2.06,0,0,1-1.75-.21l-16.15-9.32c-.58-.33-.74-.78-.35-1L489.1,358a2,2,0,0,1,1.74.21L507,367.51c.58.33.74.78.36,1Z"></path>
        <path class="ac"
              d="M372.73,286.18A2.07,2.07,0,0,1,371,286l-16.15-9.32c-.57-.33-.73-.79-.34-1l10.7-6.18a2,2,0,0,1,1.74.2L383.07,279c.58.33.74.79.36,1Z"></path>
        <path class="ac"
              d="M395,299a2,2,0,0,1-1.75-.2l-16.14-9.32c-.58-.33-.75-.79-.35-1l10.69-6.18a2.06,2.06,0,0,1,1.75.21l16.15,9.32c.57.33.73.79.35,1Z"></path>
        <path class="ac"
              d="M417.19,311.84a2,2,0,0,1-1.76-.21l-16.15-9.31c-.57-.34-.73-.79-.34-1l10.7-6.19a2,2,0,0,1,1.74.21l16.15,9.31c.58.34.74.8.36,1Z"></path>
        <path class="ac"
              d="M439.42,324.66a2,2,0,0,1-1.76-.19l-16.14-9.32c-.59-.34-.75-.79-.36-1l10.7-6.18a2,2,0,0,1,1.75.21l16.15,9.32c.58.33.73.78.36,1Z"></path>
        <path class="ac"
              d="M461.65,337.49a2,2,0,0,1-1.75-.2L443.76,328c-.59-.34-.74-.79-.35-1l10.7-6.18a2.05,2.05,0,0,1,1.75.2L472,330.3c.57.33.73.79.35,1Z"></path>
        <path class="ac"
              d="M483.89,350.32a2,2,0,0,1-1.76-.21L466,340.8c-.57-.33-.73-.79-.34-1l10.69-6.18a2.06,2.06,0,0,1,1.75.21l16.14,9.31c.59.34.75.8.37,1Z"></path>
        <path class="ac"
              d="M506.12,363.15a2.07,2.07,0,0,1-1.76-.2l-16.14-9.32c-.59-.34-.74-.79-.35-1l10.7-6.18a2,2,0,0,1,1.74.21L516.46,356c.58.33.74.78.36,1Z"></path>
        <path class="ac"
              d="M328.37,260.59a2,2,0,0,1-1.76-.2l-27.38-15.8c-.58-.34-.74-.79-.35-1l10.7-6.18a2,2,0,0,1,1.75.21l27.38,15.8c.58.33.74.79.36,1Z"></path>
        <path class="ac"
              d="M543.08,367.46a2,2,0,0,1-1.76-.2L514,351.46c-.57-.33-.74-.79-.35-1l10.69-6.18a2,2,0,0,1,1.75.2l27.38,15.8c.58.34.74.79.36,1Z"></path>
        <path class="ac"
              d="M318.89,272.14a2,2,0,0,1-1.75-.21L284.51,253.1c-.59-.34-.75-.79-.36-1l10.7-6.19a2.06,2.06,0,0,1,1.75.21L329.23,265c.59.33.74.79.36,1Z"></path>
        <path class="ac"
              d="M293.29,274.37a2.07,2.07,0,0,1-1.76-.2l-21.76-12.56c-.58-.34-.74-.79-.36-1l10.7-6.18a2,2,0,0,1,1.76.2l21.76,12.56c.58.33.74.79.36,1Z"></path>
        <path class="ac"
              d="M354.1,258.43a2,2,0,0,1-1.76-.21l-16.14-9.31c-.58-.34-.74-.79-.35-1l10.69-6.17a2,2,0,0,1,1.76.2l16.13,9.31c.59.34.75.79.36,1Z"></path>
        <path class="ac"
              d="M376.23,271.19a2,2,0,0,1-1.76-.21l-16.15-9.31c-.57-.34-.74-.79-.35-1l10.7-6.18a2,2,0,0,1,1.75.21L386.57,264c.58.34.74.8.35,1Z"></path>
        <path class="ac"
              d="M398.45,284a2,2,0,0,1-1.75-.2l-16.14-9.32c-.58-.33-.74-.78-.36-1l10.7-6.18a2,2,0,0,1,1.75.21l16.15,9.31c.58.34.73.79.35,1Z"></path>
        <path class="ac"
              d="M420.69,296.85a2,2,0,0,1-1.76-.21l-16.13-9.31c-.59-.34-.75-.79-.36-1l10.7-6.17a2,2,0,0,1,1.75.2L431,289.65c.58.34.74.79.36,1Z"></path>
        <path class="ac"
              d="M442.91,309.67a2,2,0,0,1-1.75-.2L425,300.16c-.58-.34-.74-.8-.35-1L435.36,293a2,2,0,0,1,1.76.21l16.14,9.31c.59.34.74.79.35,1Z"></path>
        <path class="ac"
              d="M465.16,322.5a2,2,0,0,1-1.75-.2L447.25,313c-.57-.33-.73-.78-.34-1l10.69-6.18a2,2,0,0,1,1.75.2l16.15,9.32c.58.33.74.78.35,1Z"></path>
        <path class="ac"
              d="M487.39,335.33a2,2,0,0,1-1.76-.21l-16.14-9.31c-.59-.34-.75-.8-.36-1l10.69-6.18a2.07,2.07,0,0,1,1.77.21l16.14,9.31c.58.34.74.79.35,1Z"></path>
        <path class="ac"
              d="M509.61,348.15a2,2,0,0,1-1.74-.2l-16.16-9.32c-.57-.33-.73-.79-.34-1l10.69-6.18a2,2,0,0,1,1.75.2L520,341c.58.33.74.78.35,1Z"></path>
        <path class="ac"
              d="M522.54,359.47a2.43,2.43,0,0,0-.94-.31,1.28,1.28,0,0,0-.8.1l-10.7,6.18a.37.37,0,0,0-.19.47,1.14,1.14,0,0,0,.53.54l4.22,2.44-14,8.1a.37.37,0,0,0-.19.47,1.1,1.1,0,0,0,.55.54l10.87,6.28a2.74,2.74,0,0,0,.95.32,1.38,1.38,0,0,0,.81-.11l25.43-14.69a.36.36,0,0,0,.18-.47,1.18,1.18,0,0,0-.54-.55Z"></path>
        <path class="ac"
              d="M290.39,269.16a.25.25,0,0,1-.16-.05L277.88,262c-.06,0-.1-.08-.08-.1l.78-.45a.28.28,0,0,1,.17.05l12.34,7.12c.07,0,.11.09.08.1Z"></path>
        <path class="ad"
              d="M368.81,69.89s-29.53,7-46-30.93C312,52.52,296,42.2,286,33.08l-9.33-9.77c-5.95,2.36-9.41,3.82-15.06,7.92l3.93,6.38,1.16,1.78c-14.34,40.91,23.92,107.7,30.88,118.05,8,11.87,21.27,30.49,21.27,30.49s19.87-1.86,27.93-5.62S396.88,141.12,368.81,69.89Z"></path>
        <path class="ae"
              d="M353.76,77.81s-29.53,7-46-30.93C290.94,68,261.61,31.23,261.61,31.23,225.4,67.4,274.54,153.49,282.53,165.36c5.47,8.13,13.42,19.42,17.89,25.73,2.09,3,5.29,4.58,8.31,4.2,6.42-.8,17.48-2.49,23-5.06C339.78,186.47,389.48,150.34,353.76,77.81Z"></path>
        <path class="w"
              d="M342,87.28s-23.42,5.55-36.51-24.53C292.22,79.49,269,50.34,269,50.34c-28.72,28.68,10.25,97,16.59,106.38,3.42,5.08,8.12,12.25,11.74,17.78,3.27,5,8.68,7.54,13.49,6.32a92.23,92.23,0,0,0,13.78-4.38C331,173.46,370.37,144.8,342,87.28Z"></path>
        <path class="w"
              d="M342,87.28s-23.41,5.55-36.51-24.51l.84,118.17a10.25,10.25,0,0,0,4.41-.12,92.23,92.23,0,0,0,13.78-4.38C331,173.46,370.37,144.8,342,87.28Z"></path>
        <path class="o"
              d="M271.22,409.28c0,1.33-.94,1.87-2.1,1.2a4.62,4.62,0,0,1-2.1-3.62c0-1.33.94-1.86,2.1-1.2A4.62,4.62,0,0,1,271.22,409.28Z"></path>
        <path class="af"
              d="M397.85,180.22s9.52-9.91,26.88-.23C438,187.38,431,186.35,447,192.14c9.4,3.42,24.12-10,47.3,1.4,42,20.69,56.85-12.28,75,8.16l-.55,87.92-171-96.18Z"></path>
        <line class="ag" x1="397.77" y1="193.93" x2="398.32" y2="106.1"></line>
        <line class="ag" x1="440.35" y1="216.88" x2="440.9" y2="129.04"></line>
        <line class="ag" x1="482.93" y1="240.93" x2="483.48" y2="153.09"></line>
        <line class="ag" x1="525.51" y1="264.96" x2="526.06" y2="177.12"></line>
        <line class="ag" x1="568.08" y1="290.34" x2="568.63" y2="202.51"></line>
        <path class="o"
              d="M568.19,193.81l-5.62-3.46a2.65,2.65,0,0,1-1.12-2h0c0-.75.52-1,1.14-.66l5.61,3.46a2.6,2.6,0,0,1,1.12,2h0C569.32,193.9,568.81,194.2,568.19,193.81Z"></path>
        <path class="o"
              d="M567.08,294.68l-5.61-3.46-.05,0-4.17-2.57c-.62-.38-1.13-.09-1.14.65a2.64,2.64,0,0,0,1.13,2.05l5.61,3.46,0,0,4.17,2.57c.62.38,1.13.08,1.14-.66A2.65,2.65,0,0,0,567.08,294.68Z"></path>
        <path class="o"
              d="M520.41,267.05l-5.61-3.46-.06,0L510.58,261c-.63-.38-1.14-.09-1.14.66a2.66,2.66,0,0,0,1.12,2l5.61,3.45.05,0,4.17,2.57c.62.38,1.13.09,1.14-.66A2.69,2.69,0,0,0,520.41,267.05Z"></path>
        <path class="o"
              d="M476.81,241.53l-5.61-3.46-.06,0L467,235.48c-.63-.39-1.14-.09-1.14.65a2.63,2.63,0,0,0,1.12,2.05l5.61,3.46.05,0,4.17,2.56c.62.39,1.13.09,1.14-.65A2.66,2.66,0,0,0,476.81,241.53Z"></path>
        <path class="o"
              d="M435.66,217.62l-5.61-3.46-.05,0-4.17-2.56c-.62-.39-1.13-.09-1.14.65a2.66,2.66,0,0,0,1.12,2.05l5.62,3.46.05,0,4.17,2.57c.62.38,1.13.08,1.13-.66A2.63,2.63,0,0,0,435.66,217.62Z"></path>
        <path class="o"
              d="M525,171.06l-5.62-3.46a2.69,2.69,0,0,1-1.12-2h0c0-.75.52-1,1.14-.66l5.61,3.46a2.64,2.64,0,0,1,1.12,2.05h0C526.1,171.14,525.59,171.44,525,171.06Z"></path>
        <path class="o"
              d="M482.7,148.59l-5.62-3.46a2.65,2.65,0,0,1-1.12-2h0c0-.75.52-1,1.14-.66l5.61,3.46a2.63,2.63,0,0,1,1.12,2.05h0C483.83,148.68,483.32,149,482.7,148.59Z"></path>
        <path class="o"
              d="M439.82,125.61l-5.62-3.46a2.67,2.67,0,0,1-1.12-2.05h0c0-.74.52-1,1.14-.66l5.61,3.46a2.66,2.66,0,0,1,1.12,2h0C441,125.7,440.44,126,439.82,125.61Z"></path>
        <path class="o"
              d="M397.58,102.42,392,99a2.69,2.69,0,0,1-1.12-2h0c0-.75.52-1,1.14-.66l5.61,3.46a2.63,2.63,0,0,1,1.12,2h0C398.71,102.51,398.2,102.81,397.58,102.42Z"></path>
        <path class="o"
              d="M391.84,193.34l-5.61-3.46-.06,0L382,187.29c-.62-.38-1.14-.09-1.14.66A2.66,2.66,0,0,0,382,190l5.61,3.45,0,0,4.17,2.57c.62.38,1.14.09,1.14-.66A2.69,2.69,0,0,0,391.84,193.34Z"></path>
        <path class="ah"
              d="M73.17,411.71,3.36,371.4a5.39,5.39,0,0,1,0-9.33l74.32-42.91a5.4,5.4,0,0,1,5.39,0l74.85,43.22a5.39,5.39,0,0,1,0,9.33l-69.28,40A15.49,15.49,0,0,1,73.17,411.71Z"></path>
        <polygon class="ai" points="0.7 347.69 0.67 366.82 80.64 410.32 80.64 397.43 0.7 347.69"></polygon>
        <path class="aj"
              d="M81.7,413.76V390.87l78.91-43.19V367a5.34,5.34,0,0,1-2.69,4.67L89.84,411S85.5,414,81.7,413.76Z"></path>
        <path class="ak"
              d="M73.17,392.35,3.36,352a5.39,5.39,0,0,1,0-9.33l71.05-41a11.92,11.92,0,0,1,11.92,0L157.92,343a5.39,5.39,0,0,1,0,9.33l-69.28,40A15.49,15.49,0,0,1,73.17,392.35Z"></path>
        <path class="o"
              d="M18.54,371.86c0,1.33-.94,1.86-2.1,1.2a4.62,4.62,0,0,1-2.1-3.62c0-1.33.94-1.87,2.1-1.2A4.62,4.62,0,0,1,18.54,371.86Z"></path>
        <path class="al"
              d="M25.61,376.4c0,1.33-.94,1.86-2.1,1.19a4.62,4.62,0,0,1-2.1-3.62c0-1.33.94-1.86,2.1-1.19A4.61,4.61,0,0,1,25.61,376.4Z"></path>
        <polygon class="al" points="125.18 386.34 135.31 380.49 135.31 372.33 125.18 378.18 125.18 386.34"></polygon>
        <polygon class="al" points="140.12 377.69 150.25 371.84 150.25 363.68 140.12 369.53 140.12 377.69"></polygon>
        <path class="am"
              d="M72.5,374.86,2.69,334.55a5.39,5.39,0,0,1,0-9.33L77,282.31a5.4,5.4,0,0,1,5.39,0l74.85,43.21a5.4,5.4,0,0,1,0,9.34L88,374.86A15.49,15.49,0,0,1,72.5,374.86Z"></path>
        <polygon class="an" points="0.03 310.83 0 329.97 79.97 373.47 79.97 360.58 0.03 310.83"></polygon>
        <path class="ao"
              d="M81,376.91V354l78.91-43.19v19.36a5.34,5.34,0,0,1-2.69,4.67l-68.08,39.3S84.83,377.18,81,376.91Z"></path>
        <path class="ap"
              d="M72.5,355.5,2.69,315.19a5.39,5.39,0,0,1,0-9.33l71.05-41a11.92,11.92,0,0,1,11.92,0l71.59,41.33a5.39,5.39,0,0,1,0,9.33L88,355.5A15.49,15.49,0,0,1,72.5,355.5Z"></path>
        <path class="al"
              d="M24.94,337.55c0,1.33-.94,1.86-2.1,1.19a4.62,4.62,0,0,1-2.1-3.62c0-1.33.94-1.86,2.1-1.19A4.59,4.59,0,0,1,24.94,337.55Z"></path>
        <polygon class="al" points="124.51 349.49 134.64 343.64 134.64 335.48 124.51 341.33 124.51 349.49"></polygon>
        <polygon class="al" points="139.45 340.84 149.59 334.99 149.59 326.83 139.45 332.68 139.45 340.84"></polygon>
        <path class="aq"
              d="M72.5,336.22,2.69,295.92a5.4,5.4,0,0,1,0-9.34L77,243.68a5.36,5.36,0,0,1,5.39,0l74.85,43.21a5.4,5.4,0,0,1,0,9.34L88,336.22A15.49,15.49,0,0,1,72.5,336.22Z"></path>
        <polygon class="ar" points="0.03 272.2 0 291.33 79.97 334.83 79.97 321.95 0.03 272.2"></polygon>
        <path class="as"
              d="M81,338.27V315.38l78.91-43.18v19.36a5.35,5.35,0,0,1-2.69,4.67l-68.08,39.3S84.83,338.55,81,338.27Z"></path>
        <path class="at"
              d="M72.5,316.86,2.69,276.56a5.4,5.4,0,0,1,0-9.34l71.05-41a11.92,11.92,0,0,1,11.92,0l71.59,41.33a5.4,5.4,0,0,1,0,9.34L88,316.86A15.44,15.44,0,0,1,72.5,316.86Z"></path>
        <path class="o"
              d="M17.87,296.37c0,1.33-.94,1.87-2.1,1.2a4.62,4.62,0,0,1-2.1-3.62c0-1.33.94-1.87,2.1-1.2A4.62,4.62,0,0,1,17.87,296.37Z"></path>
        <path class="al"
              d="M24.94,300.91c0,1.33-.94,1.87-2.1,1.2a4.62,4.62,0,0,1-2.1-3.62c0-1.33.94-1.87,2.1-1.2A4.62,4.62,0,0,1,24.94,300.91Z"></path>
        <polygon class="al" points="124.51 310.85 134.64 305 134.64 296.84 124.51 302.69 124.51 310.85"></polygon>
        <polygon class="al" points="139.45 302.2 149.59 296.35 149.59 288.19 139.45 294.04 139.45 302.2"></polygon>
        <path class="ac"
              d="M213.85,456.24l71.92-41.52c4.24-2.45,3.7-6.77-1.2-9.6L260.46,391.2c-4.9-2.83-12.38-3.14-16.63-.69L171.91,432c-4.24,2.45-3.7,6.77,1.2,9.6l24.11,13.93C202.12,458.38,209.6,458.69,213.85,456.24Z"></path>
        <polygon class="au" points="260.02 347.07 280.63 335.21 260.15 323.39 239.41 335.21 260.02 347.07"></polygon>
        <polygon class="av"
                 points="280.63 335.21 280.63 361.18 280.63 404.8 260.04 416.66 260.02 347.07 280.63 335.21"></polygon>
        <polygon class="aw" points="260.02 347.07 260.04 416.66 239.41 404.8 239.41 335.21 260.02 347.07"></polygon>
        <polygon class="ax" points="233.86 389.38 254.32 377.48 233.91 365.7 213.38 377.56 233.86 389.38"></polygon>
        <polygon class="ay" points="233.86 433 254.22 421.15 254.22 377.52 233.86 389.38 233.86 433"></polygon>
        <polygon class="az" points="233.86 433 213.51 421.15 213.51 377.52 233.86 389.38 233.86 433"></polygon>
        <polygon class="o" points="206.36 422.23 226.9 410.37 206.49 398.58 185.75 410.42 206.36 422.23"></polygon>
        <polygon class="ba" points="206.72 449.96 185.75 437.39 185.75 410.42 206.72 422.27 206.72 449.96"></polygon>
        <polygon class="o" points="206.33 449.91 206.33 422.23 226.87 410.37 226.87 438.05 206.33 449.91"></polygon>
        <ellipse class="d" cx="499.81" cy="367.09" rx="22.28" ry="11.07"
                 transform="translate(-6.43 8.92) rotate(-1.02)"></ellipse>
        <path class="bb"
              d="M494.77,244.86s8.64,3.62,24.07-17.19c3.13-4.21,7.16-19.19,7.16-19.19l-3.72-1.65s-5.61,12.76-10.2,16.88c-6.16,5.52-23.05,13-23.78,15.75S494.77,244.86,494.77,244.86Z"></path>
        <path class="e"
              d="M483.45,359.7l4.85-.6c3.24-1.47,4.76-2.58,6.2-1.74l.41.23c1.45.84,1.26,2.31-.4,3.27l-7.13,5.66a4.69,4.69,0,0,1-5.24-.51s-.8-.72-.23-3.75C482.23,360.54,482.12,360.47,483.45,359.7Z"></path>
        <path class="h" d="M489.18,359.91c-.39,3.35-6.52,3.35-6.52.8l3.4-77.32,20.47-5.77Z"></path>
        <path class="e"
              d="M504,367.09l4.79.91c3.54-.41,5.32-1,6.44.24l.32.35c1.12,1.24.5,2.58-1.39,3l-8.51,3.2a4.7,4.7,0,0,1-4.84-2.09s-.54-.93.93-3.63C502.53,367.51,502.44,367.42,504,367.09Z"></path>
        <path class="h"
              d="M507.86,369.14c-1.07,2.71-5.75,2.12-5.67-.1,2.19-26.8-2.86-52.1-9.35-76.72l19.66-2.13C513.26,319,513,343.69,507.86,369.14Z"></path>
        <path class="bc" d="M511.28,283.22l6.84,37.52s-17,16.84-36.43,0l2.19-35.23Z"></path>
        <ellipse class="h" cx="498.94" cy="227.21" rx="6.28" ry="11.08"
                 transform="translate(-25.02 65.87) rotate(-7.37)"></ellipse>
        <path class="h"
              d="M510.13,231.62c-1.47,5.09-6.93,6.94-10.14,3.61s-4.63-10.15-3.17-15.25,5.25-6.53,8.46-3.2S511.59,226.52,510.13,231.62Z"></path>
        <path class="h"
              d="M497.77,246.32l-.55-.12a3.44,3.44,0,0,1-2.6-4.1l2.32-10.4a3.44,3.44,0,0,1,4.1-2.61l.54.12a3.45,3.45,0,0,1,2.61,4.11l-.76,10.32C503,245.48,499.61,246.73,497.77,246.32Z"></path>
        <path class="b"
              d="M493.41,232.35s-.63,3.53,5.53,3.87c4.93.28,3.47-8.65,8.36-9.44,5.38-.88,6.36-7.53,4.24-10.08s-8.05-3.88-12.34-2S485.89,218,493.41,232.35Z"></path>
        <path class="h" d="M507.32,229.54a2.34,2.34,0,1,1-1.6-2.89A2.33,2.33,0,0,1,507.32,229.54Z"></path>
        <path class="bd"
              d="M483.79,285.11c1.74-9.55-.13-17.09,0-27.24,0-18.25-.88-22.7,8.77-19.93l2.72.73a18.13,18.13,0,0,1,3.77,1.45c12.72,6.55,16.12,8.58,15.56,16.18.06,12.52-5.77,15.07-2.68,26C509.33,291,486.7,291.31,483.79,285.11Z"></path>
        <path class="q" d="M503.93,236.91l-.56-1.28a3.52,3.52,0,0,0,2.86.74A4.44,4.44,0,0,1,503.93,236.91Z"></path>
        <ellipse class="o" cx="493.88" cy="222.34" rx="4.44" ry="5.16"></ellipse>
        <path class="b"
              d="M493.76,220.72a2.62,2.62,0,0,0-4.81-1.56,10.22,10.22,0,0,0-1.19,3.17c-1.79,7.94-15.17,6.79-8.61,20.76,0,0-6,9.16,5.13,13,5.67,2,5.55-12.64,5.55-12.64s2.26-6.72,4.45-12a9.86,9.86,0,0,0,0-7.74A6.08,6.08,0,0,1,493.76,220.72Z"></path>
        <path class="o"
              d="M495.22,237.41a1.52,1.52,0,0,0-1.85,1.74,4.19,4.19,0,0,0,3.1,3.35,15.15,15.15,0,0,0,7.9.1.43.43,0,0,0,.12-.79C502.7,240.7,498.41,238.18,495.22,237.41Z"></path>
        <polygon class="o" points="532.61 256.9 518.12 248.5 526.65 223.56 541.14 231.96 532.61 256.9"></polygon>
        <path class="be"
              d="M503.14,253.61s12.48,30.33,26.09,15.72,8.83-24.91,8.83-24.91l-1.83-.5s-5.54,18.35-11.43,16.54-13.9-13.15-16.73-13.68S503.14,253.61,503.14,253.61Z"></path>
        <rect class="h" x="521.95" y="199.69" width="6.48" height="8.82" rx="2.82"
              transform="translate(903.24 621.9) rotate(-153.38)"></rect>
        <path class="h"
              d="M537.73,246.54h0a2.38,2.38,0,0,1-2.37-2.37v-2.43a2.38,2.38,0,0,1,2.37-2.38h0a2.39,2.39,0,0,1,2.38,2.38v2.43A2.38,2.38,0,0,1,537.73,246.54Z"></path>
        <path class="bf"
              d="M529.48,232.66,527,231.23a1.42,1.42,0,0,1-.6-1.57h0a.82.82,0,0,1,1.23-.53l2.48,1.43a1.43,1.43,0,0,1,.59,1.58h0A.81.81,0,0,1,529.48,232.66Z"></path>
        <path class="bg"
              d="M531.79,238.27l-3.74-2.16a1.12,1.12,0,0,1-.46-1.24h0a.64.64,0,0,1,1-.42l3.74,2.16a1.13,1.13,0,0,1,.46,1.25h0A.64.64,0,0,1,531.79,238.27Z"></path>
        <path class="bg"
              d="M533.77,243.88l-6.87-4a1.11,1.11,0,0,1-.47-1.24h0a.65.65,0,0,1,1-.42l6.87,4a1.11,1.11,0,0,1,.47,1.24h0A.64.64,0,0,1,533.77,243.88Z"></path>
        <path class="bg"
              d="M529.48,245.87l-3.74-2.16a1.14,1.14,0,0,1-.47-1.24h0a.65.65,0,0,1,1-.42l3.73,2.16a1.12,1.12,0,0,1,.47,1.25h0A.64.64,0,0,1,529.48,245.87Z"></path>
        <path class="bf"
              d="M525.16,247.6l-2.56-1.48a1.12,1.12,0,0,1-.46-1.24h0a.64.64,0,0,1,1-.42l2.56,1.48a1.12,1.12,0,0,1,.47,1.25h0A.65.65,0,0,1,525.16,247.6Z"></path>
        <polygon class="bh" points="380.58 529.24 330.41 500.27 380.27 471.48 430.94 500.39 380.58 529.24"></polygon>
        <polygon class="w" points="380.58 483.81 330.41 454.85 380.27 426.06 430.94 454.97 380.58 483.81"></polygon>
        <polygon class="bi" points="380.58 483.81 380.66 520.68 330.49 491.71 330.49 454.85 380.58 483.81"></polygon>
        <polygon class="bj" points="380.58 483.81 430.94 454.97 430.94 490.09 379.71 520.8 380.58 483.81"></polygon>
        <polygon class="o" points="372.16 508.69 362.14 502.86 362.14 495.35 372.16 501.18 372.16 508.69"></polygon>
        <polygon class="o" points="358.85 501.18 348.83 495.35 348.83 481.56 358.85 487.39 358.85 501.18"></polygon>
        <polygon class="o" points="335.52 487.85 345.55 493.68 345.55 470.64 335.52 464.81 335.52 487.85"></polygon>
        <path class="bk"
              d="M396.63,449.77c-9.73-5.84-25.66-6.1-35.57-.59s-10.08,14.7-.35,20.53,25.49,6.11,35.59.71C407.4,464.49,406.36,455.6,396.63,449.77Z"></path>
        <path class="bl"
              d="M401.27,451.89c-10.25-6.15-27-6.43-37.46-.63s-10.6,15.49-.36,21.63,26.83,6.43,37.47.74C412.61,467.39,411.51,458,401.27,451.89Z"></path>
        <path class="bm"
              d="M396.29,442.07c-9.73-5.83-25.66-6.1-35.57-.59s-10.08,14.71-.35,20.54,25.49,6.1,35.59.71C407.06,456.8,406,447.91,396.29,442.07Z"></path>
        <polyline class="bn" points="374.93 444.71 370.86 454.22 394.33 451.27"></polyline>
        <polygon points="112.48 379.3 114.99 377.84 114.99 376.21 112.4 376.81 112.48 379.3"></polygon>
        <path class="bo"
              d="M115,366.47c-1.34,3.68,2.78,10.28,2.78,10.28-.14.32-9.67-1.19-8.52-4.75s1-2,1.45-6C111.18,361.7,115.27,365.81,115,366.47Z"></path>
        <path class="bp"
              d="M109.38,371.71v.2a1.87,1.87,0,0,0,.88.92,5.2,5.2,0,0,0,4.63,0,1.38,1.38,0,0,0,.73-.72,21.68,21.68,0,0,0,6.18,7.56c1.3,1.07.66,2.11.45,2.3a4.09,4.09,0,0,1-2.7.92c-2.29.1-4.54-2.2-4.54-2.2a18.25,18.25,0,0,1-2.61-3.86l.08,2.49-3.7-2.09,0-1.43C108.65,375.25,108.06,373,109.38,371.71Z"></path>
        <polygon points="146.88 362.33 149.39 360.88 149.39 359.24 146.81 359.85 146.88 362.33"></polygon>
        <path class="bo"
              d="M149.44,349.51c-1.35,3.68,2.77,10.28,2.77,10.28-.14.32-9.66-1.19-8.51-4.75s1.05-2,1.45-6C145.58,344.73,149.68,348.85,149.44,349.51Z"></path>
        <path class="bp"
              d="M143.79,354.75v.2a1.79,1.79,0,0,0,.87.91,5.17,5.17,0,0,0,4.63,0,1.3,1.3,0,0,0,.72-.73,21.89,21.89,0,0,0,6.2,7.57c1.29,1.07.65,2.11.45,2.3a4.15,4.15,0,0,1-2.71.91c-2.29.11-4.54-2.19-4.54-2.19a18.12,18.12,0,0,1-2.6-3.86l.07,2.48-3.69-2.09v-1.42C143.06,358.29,142.46,356,143.79,354.75Z"></path>
        <path class="bq"
              d="M104.42,263a4.61,4.61,0,0,1-4.64,4.59h0A4.62,4.62,0,0,1,95.12,263V225.74a4.63,4.63,0,0,1,4.66-4.6h0a4.62,4.62,0,0,1,4.64,4.6Z"></path>
        <path class="bp"
              d="M98,259.35a13.4,13.4,0,0,0-4.75.65,12,12,0,0,0-3.83,2.22A9.54,9.54,0,0,0,86,269.6a10.4,10.4,0,0,0,3.34,7.4,11.13,11.13,0,0,0,3.49,2.25,11.43,11.43,0,0,0,4.18,1l1.26,0c.82,0,2,0,3.5,0s3.34,0,5.37.13l3.29.18,3.56.37a56.75,56.75,0,0,1,15.63,3.87,29.7,29.7,0,0,1,6.91,4.37,21.93,21.93,0,0,1,5.07,6.61,34.37,34.37,0,0,1,2.95,8.71,67.25,67.25,0,0,1,1.13,9.65c.3,6.48,0,12.78-.21,18.21s-.48,10-.57,13.24-.12,5.05-.12,5.05l5.5.42.77-4.87c.51-3.1,1.33-7.53,2.31-12.89s2.14-11.71,2.77-18.82a76,76,0,0,0,.22-11.27,47.14,47.14,0,0,0-2.32-12.22,35.56,35.56,0,0,0-6.52-11.61,43.87,43.87,0,0,0-9.81-8.45,60.94,60.94,0,0,0-10.39-5.09c-1.68-.63-3.33-1.27-4.92-1.7s-3.14-1-4.61-1.32l-4.25-1-3.81-.74c-2.42-.48-4.5-.74-6.23-1s-3.09-.45-4-.52Z"></path>
        <path class="bp"
              d="M80,295c21.14-.3,29.25-13.58,24.52-27.12C98.3,250,59.53,257.7,59,274.2,59,275.85,60,295.29,80,295Z"></path>
        <path class="bp"
              d="M76.39,274.59a12.54,12.54,0,0,0-4.62.06,11.76,11.76,0,0,0-4,1.7,9.81,9.81,0,0,0-4.3,6.86A10.39,10.39,0,0,0,65.69,291a11.2,11.2,0,0,0,3.07,2.7,11,11,0,0,0,4,1.49l1.24.13c.81.06,2,.21,3.43.4s3.29.38,5.28.74l3.22.52,3.48.7a70,70,0,0,1,15.35,4.91A30.09,30.09,0,0,1,111.4,307a17.2,17.2,0,0,1,4.42,6.21c2.12,4.9,2.15,11.46,1.5,17.67s-1.95,12.27-3,17.43-2.06,9.52-2.71,12.55l-1,4.8,5.32,1.44s.59-1.66,1.63-4.55,2.59-7.06,4.41-12,3.93-10.92,5.67-17.68a69.82,69.82,0,0,0,1.9-10.93,38,38,0,0,0-.88-12.46,31.37,31.37,0,0,0-6-12,44.79,44.79,0,0,0-9.29-8.48,85.11,85.11,0,0,0-18.45-9l-3.94-1.37-3.56-1.09c-2.24-.71-4.19-1.2-5.8-1.63s-2.91-.78-3.78-1Z"></path>
        <path class="o"
              d="M67.46,218.59c-9.57,5.53-11.79,16.91-11.79,33.68,0,6.38,1.33,15.64,4.47,21.63,0,0,6.77,7,12.5,7.94,9.94,1.58,30.83-2.2,28.59-15.89-3.22-19.73,2.37-24,5.84-47.86,1.83-12.54-10.88-16.24-15.43-13.4C85.25,208.67,74,214.82,67.46,218.59Z"></path>
        <path class="br"
              d="M76.49,275.83s-6.28-56.42,5.09-65.34c-2.6,1.52-6.86,2.94-14.33,7.23-9.59,5.5-11.79,16.91-11.79,33.68,0,6.38,1.46,32.45,1.46,41.34S75.6,302,77.17,302C77,300.27,76.49,277.72,76.49,275.83Z"></path>
        <path class="bs"
              d="M102.17,259.83l1.34.19c1.38.19,3,.4,4.81.72-2.5-14.82.27-21.09-.44-44.28-.38-12.67-10.29-15.31-16.24-11.77-1,.57-2,1.24-3.15,1.91C102.44,207.43,104.39,240.82,102.17,259.83Z"></path>
        <path class="bt"
              d="M94.22,207.12c-1.33,1.66-6.16,2.46-9.11-1.76-3.09-4.41-4.47-5.8-6.36-14.23-.89-4,2.13-7,12.09-7.07C99.68,184,101.71,197.76,94.22,207.12Z"></path>
        <path class="bt"
              d="M88.26,214c-.26,2.11-2.18,3.23-4.35,3h0c-2.18-.25-3.78-1.78-3.52-3.9l2.24-21.88a3.92,3.92,0,0,1,4.4-3.37h0a3.89,3.89,0,0,1,3.47,4.29Z"></path>
        <path class="bu"
              d="M77.65,190.92s-3.07-7.12,2-11.47,11.24-1.64,14.65,0c3.22,1.55,8.61,6,9.51,8.53.84,2.41-6.61,8.69-16.75,1.19-4.63-3.44-4.27-.37-4.07,1.32.16,1.43,1.55,5.28,1.2,5.77s-1.15-.63-1.44-1.44c-.92-2.52-1.81-5.88-3.39-4.94-.66.39-.12,3.37.54,5.61C80.3,196.83,78,192.42,77.65,190.92Z"></path>
        <path class="bv"
              d="M86.64,217.64c1.31.75,2,1.11,3.3,1.83-.93,1.55-1.39,2.34-2.28,3.93a225.34,225.34,0,0,0,8.83,44.85c-.61,2.86-.88,4.3-1.38,7.21-1.61-.81-2.42-1.22-4-2.07a225.27,225.27,0,0,1-5.3-48.89c-1-.49-1.44-.75-2.39-1.26C84.66,221,85.3,219.84,86.64,217.64Z"></path>
        <path class="bw"
              d="M97.42,284.1c-.85.49-.85,1.27,0,1.75l27.25,15.66a3.43,3.43,0,0,0,3.06,0l42.6-24.3c.85-.48.86-1.27,0-1.75L143.08,259.8a3.43,3.43,0,0,0-3.06,0Z"></path>
        <path class="bx"
              d="M96.81,285.21s0,0,0,0a1.36,1.36,0,0,0,.11.2l0,0a1,1,0,0,0,.17.19l.15.1a.45.45,0,0,0,.14.1l27.25,15.66.31.14.08,0,.2.06.22.05.26,0h.07l.36,0h.06l.35,0h.06l.35-.06H127l.3-.09,0,0a2.53,2.53,0,0,0,.33-.16l42.6-24.3a1.06,1.06,0,0,0,.64-.88c0,.51,0,1,0,1.54a1.08,1.08,0,0,1-.64.88L127.73,303a3.13,3.13,0,0,1-.32.15h0l-.06,0-.19.07-.11,0-.06,0h-.06l-.21,0h-.65a.86.86,0,0,1-.23,0h-.09l-.19,0-.08,0a.83.83,0,0,1-.21-.06l-.12,0-.09,0-.08,0a2.09,2.09,0,0,1-.3-.14L97.41,287.39h0a.27.27,0,0,1-.1-.08,1.11,1.11,0,0,1-.16-.11h0L97,287l0,0,0,0s0-.05,0-.06v0h0v0l-.06-.13h0v0s0-.05,0-.08v-.05h0v.05a.49.49,0,0,1,0-.12v0c0-.51,0-1,0-1.53A.89.89,0,0,0,96.81,285.21Z"></path>
        <path class="by"
              d="M113.16,277.48l17-9.72a.66.66,0,0,1,.55,0l10.56,6.07a.17.17,0,0,1,0,.32l-17,9.71a.59.59,0,0,1-.55,0l-10.56-6.07C113,277.71,113,277.57,113.16,277.48Z"></path>
        <path class="bz"
              d="M160.72,279.58h-.09l-1.95-1.12v0l3.86-2.2h.08l1.95,1.12v.05Zm-4-.66v-.05l-1.95-1.11h-.09l-2,1.11v.05l1.95,1.12h.08Zm-7.76-4.46v0L147,273.3h-.08l-2,1.12v0l1.95,1.13H147Zm-29.14,16.63v0l-2-1.13h-.08l-2,1.12v0l2,1.12h.09Zm2.65-1.51v-.05l-2-1.12h-.09l-2,1.12v.05l2,1.12h.08Zm2.66-1.52V288l-2-1.12h-.08l-2,1.12v.05l2,1.12h.08Zm21-3.12v-.05l-1.95-1.12h-.09l-2,1.12v.05l2,1.13h.08Zm-12.6,10.14V295l-1.94-1.12h-.09l-2,1.12v.05l2,1.12h.08ZM130.2,294v0l-1.95-1.13h-.09l-2,1.13v0l2,1.12h.08Zm6-.47v0l-1.95-1.12h-.08l-2,1.12v0l1.95,1.12h.09Zm-9.89-.24v-.05l-2-1.13h-.09L121,294v.05l1.94,1.12h.1Zm6.55-.8v0l-1.94-1.12h-.09l-2,1.12v0l2,1.12h.09Zm-3.9-.72v-.05L127,290.63h-.09l-2,1.12v.05l2,1.12H127Zm-3.9-.72V291l-2-1.12H123l-4.62,2.64v.05l1.95,1.11h.08Zm10.46-.08V291l-1.95-1.11h-.09l-2,1.11V291l2,1.12h.09Zm-3.9-.71v-.05l-2-1.12h-.08l-2,1.12v.05l2,1.11h.09Zm-3.9-.73v0l-1.95-1.13h-.08l-2,1.13v0l2,1.13h.08Zm10.45-.07v-.05l-1.95-1.12h-.08l-2,1.12v.05l2,1.12h.08Zm-3.89-.72v0l-2-1.12h-.09l-2,1.12v0l1.95,1.12h.08Zm-3.91-.72V288l-2-1.12h-.08l-2,1.12v.05l1.95,1.12h.08Zm10.46-.08v-.05l-1.95-1.12h-.08l-2,1.12V288l2,1.12h.09Zm-3.9-.72v0L135,286.09h-.08l-2,1.12v0l1.94,1.13h.1Zm-3.9-.71v-.06l-2-1.12H131l-2,1.12v.06l1.95,1.11h.09Zm-5.27,0v-.05l-2-1.12h-.09l-2,1.12v.05l2,1.12h.08Zm15.73-.09v0l-2-1.12h-.08l-2,1.12v0l2,1.12h.08Zm-3.9-.72v-.05l-2-1.11h-.09l-2,1.12v.05l1.95,1.12h.09Zm-3.91-.72v0l-1.95-1.12h-.08l-2,1.12v0l2,1.12h.09Zm6.57-.79v-.05l-2-1.12h-.09l-2,1.12v.05l1.95,1.12h.08Zm-3.91-.73v0l-2-1.13h-.07l-2,1.12v.05l1.95,1.12h.09ZM141,282v-.05L139,280.82H139l-2,1.12V282l1.95,1.11H139Zm.05-3v-.05l-1.95-1.12H139L126.41,285v0l2,1.12h.08Zm2.58-1.47v-.05l-2-1.12h-.08l-2,1.12v.05l1.94,1.12h.09Zm2.66-1.52v-.05l-2-1.12h-.09l-2,1.12V276l1.95,1.12h.09Zm13.14-1.56v-.05l-1.94-1.11h-.09l-3.28,1.86v.06l2,1.11h.09ZM151.58,273v0l-2-1.12h-.08l-2,1.12V273l1.95,1.12h.08Zm2.65-1.51v-.05l-1.95-1.12h-.08l-2,1.12v.05l1.95,1.12h.08Zm2.62,1.5v-.05l-1.95-1.12h-.09l-4.61,2.64v0l1.94,1.12h.09Zm-1.41,3.75v-.05l-1.95-1.12h-.08l-2,1.12v.05l1.94,1.12h.09Zm-3.9-.72v-.05l-1.95-1.12h-.09l-2,1.12V276l2,1.12h.09Zm1.24,2.23v0L150.84,277h-.09l-2,1.12v0l2,1.12h.09Zm-3.9-.72v-.05l-1.95-1.12h-.08l-2,1.12v.05l2,1.12h.08Zm-.09,5.95v-.05l-1.95-1.12h-.09l-2,1.12v.05l2,1.12h.08Zm-3.9-.72v0l-1.95-1.12h-.08l-2,1.12v0l2,1.12h.09Zm6.48-.75v-.06l-1.94-1.11h-.09l-2,1.11V282l1.95,1.11h.09Zm-3.82-.76v-.05l-2-1.13h-.09l-2,1.13v.05l1.94,1.12h.1Zm-3.91-.73v-.05l-1.95-1.12h-.08l-2,1.12v.05l2,1.12h.09Zm6.49-.75v-.05l-1.95-1.12h-.08l-2,1.12v.05l1.94,1.12h.09Zm-3.9-.72V279l-2-1.12h-.08l-2,1.12V279l2,1.12h.09Zm7.8,1.44v-.05l-1.95-1.12H152l-2,1.12v.05l1.95,1.12h.08Zm3.33,1v0l-1.94-1.13h-.09l-2,1.13v0l1.95,1.12h.09ZM160,280v-.05l-2-1.12H158l-2,1.12V280l1.94,1.12h.09Zm-5.31,3V283l-2-1.12h-.08l-2,1.12V283l1.94,1.12h.09Zm-2.58,1.48v-.05l-2-1.12h-.08l-2,1.12v.05l1.94,1.11h.1ZM149.47,286v-.05l-1.95-1.12h-.09l-2,1.12V286l1.95,1.12h.09Zm-10.62,6.06V292l-1.95-1.12h-.09l-2,1.12v.05l2,1.12h.09Zm2.65-1.52v0l-1.95-1.12h-.08l-2,1.12v0l1.95,1.12h.09Zm2.66-1.51v0l-1.95-1.12h-.09l-2,1.12v0l2,1.12h.09Zm2.66-1.51v-.06l-1.94-1.11h-.09l-2,1.11v.06l2,1.11h.09Zm12.52-10.1v-.05l-2-1.12h-.08l-2,1.12v.05l1.95,1.12h.09Zm2.65-1.52v-.05l-1.94-1.11H160l-2,1.11v.05L160,277H160Zm-31.11,20.7v0l-1.95-1.12h-.08L126.13,297v0l1.95,1.11h.09Zm-3.34-1v-.05l-2-1.12h-.08l-2,1.12v.05l1.94,1.12h.09Z"></path>
        <path class="ca"
              d="M152.2,263.41c-.41-1-.88-2.18-1.51-3.52s-1.26-2.89-2.1-4.51a120.85,120.85,0,0,0-14.54-22.94,119.46,119.46,0,0,0-10-10.91c-1.74-1.61-3.38-3.23-5.06-4.62l-2.41-2.07L114.27,213l-2.14-1.7-2-1.47c-1.25-.91-2.33-1.73-3.26-2.37a28.92,28.92,0,0,0-4.59-2.68c3,1.89,5.41,5.65,5.59,11.7.12,4,.14,7.48.1,10.6l2.18,1.32c1.7,1,3.39,2.14,5.17,3.31a107.59,107.59,0,0,1,10.56,8.18,112,112,0,0,1,17,18.79c1.07,1.4,1.91,2.77,2.73,3.94s1.47,2.24,2,3.11l1.72,2.74,4.12-2S153,265.36,152.2,263.41Z"></path>
        <path class="bx"
              d="M137,270.39l42.6-24.31a1.11,1.11,0,0,1,1.1-.1l1.34.78a1.11,1.11,0,0,0-1.1.1l-42.6,24.3a3.33,3.33,0,0,0-1.52,2.62l-9.07,28.52a1,1,0,0,0,.44,1l-1.35-.77a1.06,1.06,0,0,1-.44-1L135.43,273A3.31,3.31,0,0,1,137,270.39Z"></path>
        <path class="cb"
              d="M138.3,271.16a3.33,3.33,0,0,0-1.52,2.62l-9.07,28.52c0,1,.68,1.35,1.54.87l42.59-24.3a3.35,3.35,0,0,0,1.54-2.62l9.07-28.52c0-1-.69-1.35-1.55-.87Z"></path>
        <path class="cc"
              d="M128.82,280.61a.6.6,0,0,0,.39-.76l-.07-.23a.61.61,0,0,0-.76-.39l-.1,0-.09-.28.94-.3a.58.58,0,0,0,.39-.75l-.07-.23a.6.6,0,0,0-.75-.4l-.94.29-.1-.3,1.38-.44a.59.59,0,0,0,.39-.75l-.07-.23a.61.61,0,0,0-.76-.4l-1.38.43-.12-.38,5-1.57a.6.6,0,0,0,.39-.75l-.07-.23a.62.62,0,0,0-.76-.4l-5,1.57h0l-2.32.74a3.78,3.78,0,0,1-1.3.17l3-2.86a.62.62,0,0,0,.05-.85v0l-.55-.58a.1.1,0,0,0-.15,0l-.21.2-.63.59h0l-.28.27h0s-2.15,1.94-2.79,2.65a7.19,7.19,0,0,0-1.46,3.28c-.44,1.47-4.28,2.37-7,1.06-.59-.28-.77,3.4.43,3.45,4,.19,6.34-1.33,8-.38a8.66,8.66,0,0,0,3.44,0l2-.64.06,0Z"></path>
        <path class="cd"
              d="M58.08,229.25a7.29,7.29,0,0,1,9-4.69,7.61,7.61,0,0,1,5.56,8.27,5.35,5.35,0,0,1-.15.86s-.1.34-.3,1-.44,1.59-.77,2.8a99.47,99.47,0,0,0-2.19,10,50.3,50.3,0,0,0-.66,13.63c.52,4.72,2.12,9.14,5.54,12.2s8.57,4.88,13.7,5.63a70.67,70.67,0,0,0,14.62.54c4.38-.23,8.06-.67,10.63-1l4-.58,1.1,5.24-4.09,1c-2.61.62-6.36,1.46-11,2.18a78.09,78.09,0,0,1-16.18,1,42.4,42.4,0,0,1-9.55-1.47,29.72,29.72,0,0,1-9.66-4.54,26.32,26.32,0,0,1-7.4-8.37,35.07,35.07,0,0,1-3.61-9.78,62.41,62.41,0,0,1-1-17.14A112.37,112.37,0,0,1,57,234.45c.23-1.37.41-2.45.53-3.18s.22-1.11.22-1.11C57.87,229.85,58,229.55,58.08,229.25Z"></path>
        <path class="ce"
              d="M374.74,439.88a.55.55,0,0,0,0-.73l-.14-.15a.46.46,0,0,0-.69,0l-2.75,2.69-.17-.18,3.27-3.22a.53.53,0,0,0,0-.73l-.13-.15a.48.48,0,0,0-.7,0l-3.27,3.21-.18-.2,3.55-3.49a.54.54,0,0,0,0-.73l-.14-.15a.48.48,0,0,0-.69,0l-3.55,3.48-.23-.25,3.11-3.05a.53.53,0,0,0,0-.73l-.13-.15a.5.5,0,0,0-.7,0l-3.11,3.06h0l-1.45,1.43a3,3,0,0,1-.89.61L367,437a.56.56,0,0,0-.26-.69h0l-.61-.24a.09.09,0,0,0-.11.05l-.09.24-.25.68h0l-.11.32h0s-.91,2.29-1.12,3.09a11.83,11.83,0,0,0-.21,2.31c-.14,1.37.33,2.17-3.71,2.62-.4,0,1.29,1.9,1.29,1.9a33.5,33.5,0,0,1,5.29-1.75,15.39,15.39,0,0,0,3.73-1.86l0,0Z"></path>
        <path class="cf"
              d="M296.47,574.67c-1.24.7-2.25,1-3.25.39v.37c-.1,1-.32,1.23-.69,1.46a3.74,3.74,0,0,1-3.69,0,1.55,1.55,0,0,1-.69-.76V576a4.62,4.62,0,0,0-.19,4.67V582s.22,1.15,2.13,1.18c1.67,0,2.82-1.76,2.82-1.76v-1.44a8.61,8.61,0,0,1,2.68-.25c1.93-.7,2.59-1.16,3.1-2C300.3,575.24,297.69,574,296.47,574.67Z"></path>
        <path class="cg"
              d="M288.59,571.56a25.59,25.59,0,0,1-.49,4.52c.67,2,5.69,1.95,5.12-1a4.58,4.58,0,0,1-.9-3.08C292.32,570.54,288.5,570,288.59,571.56Z"></path>
        <path class="cf"
              d="M326.77,577.19c-1.23.7-2.25,1-3.24.38v.37c-.1,1-.33,1.24-.69,1.47a3.81,3.81,0,0,1-3.7,0,1.66,1.66,0,0,1-.69-.77v-.11a4.56,4.56,0,0,0-.18,4.66v1.27s.21,1.16,2.12,1.19c1.67,0,2.83-1.77,2.83-1.77v-1.43c1.12-.48,2.31-.12,2.68-.25,1.92-.71,2.58-1.16,3.1-2C330.6,577.76,328,576.48,326.77,577.19Z"></path>
        <path class="cg"
              d="M318.89,574.07a26.06,26.06,0,0,1-.48,4.53c.66,2,5.68,1.95,5.12-1a4.53,4.53,0,0,1-.9-3.07C322.63,573.06,318.8,572.55,318.89,574.07Z"></path>
        <path class="ch"
              d="M294.05,411.84l-.62-3.23a4.76,4.76,0,0,0-6-3.58s-1.19.35-3.25,1a88.92,88.92,0,0,0-8.51,3.39,57.13,57.13,0,0,0-5.6,3c-.49.28-1,.62-1.49,1s-1,.68-1.5,1.05a34.76,34.76,0,0,0-3,2.58,21.49,21.49,0,0,0-5.13,7.39,18.21,18.21,0,0,0-1,9.7,25.7,25.7,0,0,0,2.93,8.19,42.83,42.83,0,0,0,4.29,6.32,82.79,82.79,0,0,0,8.86,9.22c2.72,2.48,5.08,4.37,6.73,5.7l2.61,2.05,2.78-3.57-2.32-2.27c-1.46-1.46-3.55-3.55-5.88-6.18a78.63,78.63,0,0,1-7.25-9.34,36.12,36.12,0,0,1-3-5.58,17.12,17.12,0,0,1-1.41-5.62,8.39,8.39,0,0,1,1-4.55,11.67,11.67,0,0,1,3.24-3.57,20.63,20.63,0,0,1,2.17-1.47c.38-.23.79-.43,1.17-.64s.77-.42,1.18-.59a44.51,44.51,0,0,1,4.72-1.88,75,75,0,0,1,7.62-2.08c1.89-.4,3-.6,3-.6A5.08,5.08,0,0,0,294.05,411.84Z"></path>
        <path class="ci"
              d="M316.92,467.93a10.2,10.2,0,0,0-2.31-3.57c0-.11,0-.21,0-.28,1.38-13-33.72-18.44-33.27-4.8.05,1.52.1,3.56.3,5.84a11.29,11.29,0,0,0-.17,1.94c0,.05,6.69,105.39,6.69,105.39h4.73s3.58-57.89,5.51-87.18a11.25,11.25,0,0,0,5.62-1.37l14,33.68a3.32,3.32,0,0,0,.36.68c.08.13-2.33,6.46-1.42,21.57,0,.39,1.4,34.88,1.4,34.88l4.71.4s8-57.32,8.13-58.67C330.77,515.19,317,468,316.92,467.93Z"></path>
        <path class="ch"
              d="M317.17,420.54c5.64,4.23,3.34,14,2.58,24.32-.72,9.83-1,20.42,0,28.19-8.17,8-37.36,7.8-38.91-4.53-1.92-15.33-4.4-38.27-2.22-51.23,1.74-10.4,8.78-14.23,12.83-11.55C297.18,409.5,311.69,416.44,317.17,420.54Z"></path>
        <path class="bt"
              d="M310.48,402.12c-1.28,3.17-6.08,2.1-8.31,1.09-3.44-1.57-6.78-4.62-7.26-12.85-.23-3.91,1.11-8.9,10.11-8.1,2.5.22,6-.45,6.52,2.14.95,4.46,1.21,6,2.37,12.37.1.52-1.53.65-2.07.67A32.58,32.58,0,0,1,310.48,402.12Z"></path>
        <path class="bt"
              d="M303.78,413.12a3.33,3.33,0,0,1-3.59,3.33h0a3.34,3.34,0,0,1-3.59-3.32l0-21.29a3.67,3.67,0,0,1,3.59-3.71h0a3.65,3.65,0,0,1,3.59,3.7Z"></path>
        <path class="cj"
              d="M298.89,394.59c-1.21-2.4-.6-4.86,1.14-5.14,1.06-.16,1.65.21,1.71,1.78.09,2-.85,5.56.05,5.66.48.05.72-.72.88-1.2,1.24-3.63.66-7.83,1.19-8.27,1.38-1.15,2.67.2,6.91-1.81,4.85-2.29,2.77-2.73,1.72-4.22-1.47-2.08-2.42.25-4.72-.23s-9.68-1.93-13.26,3.5.59,10,1,11,.38,2.67,1.1,3.44c.29.17.7.2,2.18-.09C299.25,398.73,300.23,397.24,298.89,394.59Z"></path>
        <path class="ch"
              d="M320.15,425.18c-.82-3.44-4.84-5.61-9.09-4.66s-7.06,4.77-6.13,8.66l.26.8c.16.51.42,1.27.76,2.24.67,1.93,1.66,4.7,3.18,8,.38.83.82,1.71,1.26,2.61s.95,1.83,1.55,2.78a34,34,0,0,0,4.26,5.8,24.38,24.38,0,0,0,6.36,5,21.27,21.27,0,0,0,7.75,2.35,34.07,34.07,0,0,0,13.86-1.74,78.65,78.65,0,0,0,10.47-4.25c2.92-1.43,5.29-2.72,6.92-3.64l2.57-1.46-1.68-3.91-2.69.95c-1.71.6-4.16,1.4-7.11,2.24a71,71,0,0,1-10,2.1,37,37,0,0,1-5.45.3,20.62,20.62,0,0,1-5.05-.77,11.46,11.46,0,0,1-6.68-5.22,21.23,21.23,0,0,1-2-4c-.29-.68-.51-1.44-.75-2.13s-.43-1.43-.62-2.12c-.73-2.78-1.19-5.29-1.49-7.07-.15-.9-.27-1.6-.35-2.1S320.16,425.2,320.15,425.18Z"></path>
        <path class="ck"
              d="M563.62,35.9c24.56,13.53,43,46.32,41.22,73.23,0,.55-.09,1.1-.14,1.64a30.25,30.25,0,0,1,3.71,1.76c14.72,8.1,25.77,27.74,24.7,43.87-1,15.59-13,22.19-27.12,15.29l-98.82-54.78c-16.6-9.06-29-31.21-27.82-49.4,1.22-18.37,15.63-25.86,32.38-16.64a44.51,44.51,0,0,1,5,3.23C521.11,31.68,541,23.44,563.62,35.9Z"></path>
        <path class="o"
              d="M553.31,43.13c24.56,13.53,43,46.32,41.23,73.24,0,.55-.1,1.09-.15,1.64a32.58,32.58,0,0,1,3.72,1.75c14.71,8.1,25.77,27.74,24.69,43.87-1,15.59-13,22.19-27.12,15.29l-98.81-54.78c-16.61-9.06-29-31.21-27.83-49.4,1.22-18.36,15.63-25.86,32.38-16.63a43,43,0,0,1,5,3.22C510.81,38.92,530.69,30.68,553.31,43.13Z"></path>
        <path class="cl"
              d="M548.42,44.24c24.56,13.53,43,46.32,41.23,73.24,0,.55-.1,1.09-.15,1.64a31.8,31.8,0,0,1,3.72,1.75c14.71,8.1,25.77,27.74,24.7,43.87-1,15.59-13,22.19-27.12,15.29L492,125.25c-16.61-9.06-29-31.21-27.83-49.4,1.22-18.36,15.63-25.86,32.38-16.63a43,43,0,0,1,5,3.22C505.92,40,525.8,31.79,548.42,44.24Z"></path>
        <path class="cm"
              d="M543.31,51c24.07,13.26,42.16,45.4,40.4,71.78,0,.53-.09,1.07-.14,1.6a30.53,30.53,0,0,1,3.64,1.72c14.42,7.94,25.26,27.19,24.21,43-1,15.28-12.77,21.74-26.58,15L488,130.35c-16.28-8.89-28.46-30.59-27.27-48.42,1.19-18,15.31-25.35,31.73-16.3a41.75,41.75,0,0,1,4.88,3.15C501.65,46.82,521.14,38.74,543.31,51Z"></path>
        <polygon class="cn" points="568.03 92.49 549.97 81.77 549.97 77.48 568.03 88.2 568.03 92.49"></polygon>
        <polygon class="cn" points="568.03 101.22 529.6 78.39 529.6 74.11 568.03 96.93 568.03 101.22"></polygon>
        <polygon class="cn" points="524.98 75.66 509.83 66.66 509.83 62.37 524.98 71.37 524.98 75.66"></polygon>
        <polygon class="co" points="568.03 109.95 556.94 103.36 556.94 99.07 568.03 105.66 568.03 109.95"></polygon>
        <polygon class="cp" points="552.12 100.5 539.55 93.04 539.55 88.75 552.12 96.21 552.12 100.5"></polygon>
        <polygon class="cn" points="537.35 91.73 513.7 77.69 513.7 73.4 537.35 87.44 537.35 91.73"></polygon>
        <polygon class="cq" points="568.03 118.67 549.97 107.95 549.97 103.66 568.03 114.39 568.03 118.67"></polygon>
        <polygon class="cn" points="557.84 121.35 547.83 115.41 547.83 111.12 557.84 117.06 557.84 121.35"></polygon>
        <polygon class="cp" points="544.79 113.6 522.24 100.21 522.24 95.92 544.79 109.31 544.79 113.6"></polygon>
        <polygon class="cn" points="518.29 97.87 508.15 91.84 508.15 87.55 518.29 93.58 518.29 97.87"></polygon>
        <polygon class="cr" points="557.84 130.08 542.81 121.16 542.81 116.86 557.84 125.79 557.84 130.08"></polygon>
        <polygon class="cn" points="540.8 119.96 534.88 116.45 534.88 112.16 540.8 115.67 540.8 119.96"></polygon>
        <polygon class="cn" points="531.77 114.6 520.1 107.67 520.1 103.38 531.77 110.31 531.77 114.6"></polygon>
        <polygon class="cn" points="516.95 105.8 509.49 101.37 509.49 97.08 516.95 101.51 516.95 105.8"></polygon>
        <polygon class="cn" points="557.84 138.81 547.83 132.86 547.83 128.57 557.84 134.52 557.84 138.81"></polygon>
        <polygon class="cs" points="544.56 130.92 534.55 124.98 534.55 120.69 544.56 126.64 544.56 130.92"></polygon>
        <polygon class="cq" points="568.03 153.59 549.97 142.87 549.97 138.58 568.03 149.3 568.03 153.59"></polygon>
        <path class="ct"
              d="M565,62.54c1.47-7.7-2.55-17.73-9-22.41-2.95-2.16-5.9-2.8-8.37-2.12h0a6.6,6.6,0,0,0-1,.35l-5.87,2.36,2.89.11a11.7,11.7,0,0,0-2,4.75c-1.47,7.7,2.55,17.73,9,22.41a12.7,12.7,0,0,0,3.91,2l.51,1.69,4.09-1.59c.22-.07.44-.15.65-.24l.08,0h0C562.44,68.77,564.32,66.28,565,62.54Z"></path>
        <path class="cu"
              d="M559.68,64.65c-1.47,7.7-7.87,10.14-14.3,5.46s-10.45-14.72-9-22.41,7.87-10.15,14.3-5.46S561.15,57,559.68,64.65Z"></path>
        <path class="o"
              d="M555.05,48.93,544.75,62.2l2.35.3L542,54.79c-1.06-1.6-3.66-.1-2.59,1.52L544.51,64a1.52,1.52,0,0,0,2.36.3l10.3-13.27c1.17-1.51-.94-3.65-2.12-2.12Z"></path>
    </g>
</svg>
